<svg width="14" height="14" viewBox="0 0 14 14" fill="none" xmlns="http://www.w3.org/2000/svg">
<rect width="14" height="14" rx="2" fill="#690FF5"/>
<path d="M8.11222 5.41719C8.8215 5.7328 9.38225 6.3091 9.67833 7.02676C9.98418 7.78282 9.98418 8.62817 9.67833 9.38424C9.53191 9.74548 9.31897 10.076 9.05059 10.3587C8.78587 10.6369 8.46846 10.8597 8.11684 11.0141C7.75442 11.173 7.36246 11.2534 6.96676 11.2499C6.57264 11.2524 6.18238 11.1721 5.8213 11.0141C5.46507 10.8602 5.14274 10.6374 4.87276 10.3587C4.59901 10.078 4.38098 9.748 4.23023 9.38609C4.07651 9.01318 3.99827 8.61348 4.00003 8.21013L4.00003 2.75H5.17137V5.17774H6.96214C7.35811 5.17544 7.75008 5.25704 8.11222 5.41719ZM6.96214 10.0462C7.19933 10.047 7.43412 9.9989 7.65181 9.90474C7.97974 9.75957 8.25796 9.52156 8.45215 9.22008C8.64635 8.91861 8.74801 8.56687 8.74457 8.20828C8.74637 7.96479 8.69953 7.7234 8.60682 7.49825C8.42883 7.06335 8.08915 6.7144 7.65921 6.52474C7.44293 6.42981 7.20943 6.38041 6.97323 6.3796H5.17507V8.20457C5.17314 8.44995 5.22028 8.69325 5.31375 8.92014C5.44401 9.25141 5.67082 9.5359 5.96476 9.73668C6.25868 9.93747 6.60618 10.0453 6.96214 10.0462Z" fill="white"/>
</svg>
