<svg width="17" height="17" viewBox="0 0 17 17" fill="none" xmlns="http://www.w3.org/2000/svg">
<path d="M13.8011 3.06742C14.04 2.76349 14.4801 2.71077 14.784 2.94969C15.088 3.1886 15.1407 3.62867 14.9018 3.93261L7.46562 13.3927C7.42181 13.4484 7.37248 13.4995 7.31836 13.5453C6.87568 13.9199 6.21315 13.8647 5.83857 13.422L2.26574 9.19957C2.01602 8.90444 2.05283 8.46276 2.34795 8.21304C2.64308 7.96332 3.08476 8.00012 3.33448 8.29525L6.63014 12.1901L13.8011 3.06742Z" fill="white" fill-opacity="0.98"/>
<path d="M13.7622 3.03632C14.0182 2.71096 14.4894 2.65446 14.8149 2.91034C15.1405 3.16627 15.1967 3.63743 14.9409 3.96307L7.50537 13.424C7.4596 13.4822 7.40759 13.5353 7.35107 13.5832C6.88731 13.9756 6.19271 13.9181 5.80029 13.4543L2.22803 9.23163C1.96047 8.91542 1.99971 8.44255 2.31592 8.17499C2.63209 7.90754 3.10501 7.94679 3.37256 8.26288L6.62842 12.1105L13.7622 3.03632Z" stroke="white" stroke-opacity="0.98" stroke-width="0.1"/>
</svg>
