<svg width="40" height="40" viewBox="0 0 40 40" fill="none" xmlns="http://www.w3.org/2000/svg">
<path d="M20.9402 23.9902C20.9402 24.5843 20.4587 25.0658 19.8646 25.0658C19.2706 25.0658 18.7891 24.5843 18.7891 23.9902C18.7891 23.3962 19.2706 22.9147 19.8646 22.9147C20.4587 22.9147 20.9402 23.3962 20.9402 23.9902Z" fill="black" fill-opacity="0.86"/>
<path d="M18.5938 17.5716C18.5938 17.2037 18.7373 16.973 18.9531 16.8083C19.1969 16.622 19.5721 16.4986 19.9978 16.5C20.4234 16.5014 20.8011 16.6271 21.0479 16.8161C21.2675 16.9844 21.4082 17.2149 21.4082 17.5716C21.4082 18.0045 21.2018 18.228 20.5365 18.6962C20.5001 18.7219 20.4604 18.7492 20.4182 18.7782C19.8509 19.1687 18.8158 19.881 18.8158 21.2442C18.8158 21.7965 19.2635 22.2442 19.8158 22.2442C20.3681 22.2442 20.8158 21.7965 20.8158 21.2442C20.8158 21.0025 20.917 20.8741 21.6876 20.3318L21.6966 20.3254C22.3288 19.8806 23.4082 19.1209 23.4082 17.5716C23.4082 16.555 22.9472 15.7517 22.2641 15.2284C21.6081 14.7259 20.7823 14.5025 20.0042 14.5C19.2263 14.4975 18.3978 14.7156 17.739 15.2189C17.052 15.7437 16.5938 16.5508 16.5938 17.5716C16.5938 18.1239 17.0415 18.5716 17.5938 18.5716C18.146 18.5716 18.5938 18.1239 18.5938 17.5716Z" fill="black" fill-opacity="0.86"/>
<path fill-rule="evenodd" clip-rule="evenodd" d="M9.72266 19.4716C9.72266 14.031 14.382 9.72217 20.0004 9.72217C25.6189 9.72217 30.2782 14.031 30.2782 19.4716C30.2782 24.8865 25.9741 29.2819 20.1297 30.0227C16.1192 30.5311 12.587 30.1387 11.8232 30.0415C10.9403 29.9291 10.6542 28.9978 10.9703 28.3945C11.535 27.3169 11.9641 26.5862 12.2647 26.0783L12.3085 26.0043C12.4102 25.8325 12.4898 25.6981 12.5536 25.5862L12.5298 25.5631C12.3964 25.4333 12.23 25.2669 12.038 25.051C10.5491 23.3768 9.72266 21.7573 9.72266 19.4716ZM20.0004 11.7777C15.4016 11.7777 11.7782 15.2785 11.7782 19.4716C11.7782 21.1223 12.3208 22.2759 13.574 23.685C13.7212 23.8506 13.8496 23.9792 13.9633 24.0899L14.0292 24.1535C14.1177 24.2388 14.2233 24.3405 14.3041 24.4291C14.412 24.5473 14.585 24.7542 14.6754 25.0496C14.7754 25.3758 14.7364 25.6743 14.6646 25.9095C14.6004 26.1196 14.4968 26.3208 14.4032 26.4905C14.316 26.6486 14.2046 26.8366 14.0801 27.0469L14.0336 27.1253C13.8745 27.3942 13.6807 27.7232 13.4498 28.1339C14.9131 28.2392 17.292 28.3104 19.8712 27.9835C24.8566 27.3515 28.2227 23.6903 28.2227 19.4716C28.2227 15.2785 24.5992 11.7777 20.0004 11.7777Z" fill="black" fill-opacity="0.86"/>
</svg>
