<svg width="24" height="24" viewBox="0 0 24 24" fill="none" xmlns="http://www.w3.org/2000/svg">
<path d="M12 2C14.6522 2 17.1959 3.05335 19.0713 4.92871C20.9467 6.80407 22 9.34784 22 12C22 14.6522 20.9467 17.1959 19.0713 19.0713C17.1959 20.9467 14.6522 22 12 22C9.34784 22 6.80407 20.9467 4.92871 19.0713C3.05335 17.1959 2 14.6522 2 12C2 9.34784 3.05335 6.80407 4.92871 4.92871C6.80407 3.05335 9.34784 2 12 2ZM12 10.585L8.7041 7.29004L7.29004 8.7041L10.585 11.999L7.29004 15.2949L8.70508 16.71L12 13.4141L15.2949 16.71L16.71 15.2949L13.4141 11.999L16.71 8.7041L15.2959 7.29004L12 10.585Z" fill="#8A8784" fill-opacity="0.4"/>
</svg>
