<svg width="24" height="24" viewBox="0 0 24 24" fill="none" xmlns="http://www.w3.org/2000/svg">
<path d="M12.9402 15.9902C12.9402 16.5843 12.4587 17.0658 11.8646 17.0658C11.2706 17.0658 10.7891 16.5843 10.7891 15.9902C10.7891 15.3962 11.2706 14.9147 11.8646 14.9147C12.4587 14.9147 12.9402 15.3962 12.9402 15.9902Z" fill="black" fill-opacity="0.86"/>
<path d="M10.5938 9.57164C10.5938 9.20371 10.7373 8.97303 10.9531 8.80825C11.1969 8.62195 11.5721 8.49865 11.9978 8.50001C12.4234 8.50138 12.8011 8.62711 13.0479 8.81611C13.2675 8.98436 13.4082 9.21493 13.4082 9.57164C13.4082 10.0045 13.2018 10.228 12.5365 10.6962C12.5001 10.7219 12.4604 10.7492 12.4182 10.7782C11.8509 11.1687 10.8158 11.881 10.8158 13.2442C10.8158 13.7965 11.2635 14.2442 11.8158 14.2442C12.3681 14.2442 12.8158 13.7965 12.8158 13.2442C12.8158 13.0025 12.917 12.8741 13.6876 12.3318L13.6966 12.3254C14.3288 11.8806 15.4082 11.1209 15.4082 9.57164C15.4082 8.55498 14.9472 7.75166 14.2641 7.22841C13.6081 6.72591 12.7823 6.50252 12.0042 6.50002C11.2263 6.49753 10.3978 6.71563 9.73897 7.21891C9.05197 7.7437 8.59375 8.55077 8.59375 9.57164C8.59375 10.1239 9.04146 10.5716 9.59375 10.5716C10.146 10.5716 10.5938 10.1239 10.5938 9.57164Z" fill="black" fill-opacity="0.86"/>
<path fill-rule="evenodd" clip-rule="evenodd" d="M1.72266 11.4716C1.72266 6.031 6.38197 1.72217 12.0004 1.72217C17.6189 1.72217 22.2782 6.031 22.2782 11.4716C22.2782 16.8865 17.9741 21.2819 12.1297 22.0227C8.11921 22.5311 4.58703 22.1387 3.82318 22.0415C2.94032 21.9291 2.65423 20.9978 2.97034 20.3945C3.53497 19.3169 3.96409 18.5862 4.2647 18.0783L4.3085 18.0043C4.41024 17.8325 4.4898 17.6981 4.55358 17.5862L4.52984 17.5631C4.39636 17.4333 4.23003 17.2669 4.03799 17.051C2.54908 15.3768 1.72266 13.7573 1.72266 11.4716ZM12.0004 3.77772C7.40163 3.77772 3.77821 7.27849 3.77821 11.4716C3.77821 13.1223 4.3208 14.2759 5.57399 15.685C5.72124 15.8506 5.84956 15.9792 5.96334 16.0899L6.02915 16.1535C6.11766 16.2388 6.2233 16.3405 6.30414 16.4291C6.41196 16.5473 6.58495 16.7542 6.67545 17.0496C6.77541 17.3758 6.73643 17.6743 6.66455 17.9095C6.60037 18.1196 6.49677 18.3208 6.40319 18.4905C6.31597 18.6486 6.20464 18.8366 6.08006 19.0469L6.03362 19.1253C5.87447 19.3942 5.68069 19.7232 5.44982 20.1339C6.91306 20.2392 9.29201 20.3104 11.8712 19.9835C16.8566 19.3515 20.2227 15.6903 20.2227 11.4716C20.2227 7.27849 16.5992 3.77772 12.0004 3.77772Z" fill="black" fill-opacity="0.86"/>
</svg>
