<svg width="12" height="12" viewBox="0 0 12 12" fill="none" xmlns="http://www.w3.org/2000/svg">
<path d="M10.9091 6C10.9091 3.28878 8.71122 1.09091 6 1.09091C3.28878 1.09091 1.09091 3.28878 1.09091 6C1.09091 8.71122 3.28878 10.9091 6 10.9091V12C2.68629 12 0 9.31371 0 6C0 2.68629 2.68629 0 6 0C9.31371 0 12 2.68629 12 6C12 9.31371 9.31371 12 6 12V10.9091C8.71122 10.9091 10.9091 8.71122 10.9091 6Z" fill="black" fill-opacity="0.3"/>
<path d="M5.56139 5.77695C5.51368 5.78516 5.4608 5.79914 5.40587 5.81982C5.10508 5.93309 4.76941 5.78107 4.65614 5.48028C4.54288 5.17948 4.6949 4.84382 4.99569 4.73055C5.32996 4.60468 5.76031 4.54309 6.13438 4.68682C6.33577 4.7642 6.53891 4.91064 6.66067 5.15201C6.78099 5.39052 6.78521 5.64901 6.73138 5.88399C6.61383 6.39715 6.46863 6.96767 6.34599 7.44487L6.29946 7.62583C6.22041 7.93304 6.1571 8.1791 6.12066 8.33215C6.17462 8.32537 6.23808 8.309 6.30493 8.27996C6.59973 8.15192 6.94252 8.2871 7.07057 8.58191C7.19861 8.87672 7.06342 9.21951 6.76862 9.34755C6.40519 9.5054 5.9562 9.56432 5.56958 9.40902C5.36567 9.32711 5.16736 9.17833 5.04434 8.94486C4.92134 8.7114 4.90537 8.45371 4.95501 8.211C4.98651 8.05703 5.07163 7.72643 5.17121 7.33965L5.21868 7.15518C5.32895 6.72608 5.45453 6.23282 5.56139 5.77695Z" fill="black" fill-opacity="0.3"/>
<path d="M6.44227 4C6.90987 4 7.28893 3.62094 7.28893 3.15334C7.28893 2.68574 6.90987 2.30668 6.44227 2.30668C5.97467 2.30668 5.59561 2.68574 5.59561 3.15334C5.59561 3.62094 5.97468 4 6.44227 4Z" fill="black" fill-opacity="0.3"/>
</svg>
