<svg width="40" height="40" viewBox="0 0 40 40" fill="none" xmlns="http://www.w3.org/2000/svg">
<path d="M20.0522 20.08L31.7608 32.0698L31.5219 32.2874L31.4211 32.383C28.1426 35.3074 23.8467 36.8272 19.4585 36.6152C15.0703 36.4031 10.941 34.4762 7.95972 31.2493C4.97846 28.0223 3.38379 23.7536 3.51913 19.3624C3.65448 14.9712 5.50901 10.8089 8.68334 7.77166C11.947 4.78495 16.256 3.20434 20.6769 3.37224C25.0977 3.54013 29.2744 5.44301 32.3021 8.66865L20.0522 20.08Z" fill="#01B94F"/>
<path d="M8.69395 7.76638C11.9572 4.78229 16.2645 3.20375 20.6832 3.37263C25.1019 3.54151 29.2762 5.44421 32.3021 8.66867C32.3021 8.66867 22.5627 17.7871 22.3663 17.9464C22.3663 17.9464 20.1849 20.0004 20.2008 20.0322C20.2167 20.0641 31.7395 32.0221 31.7395 32.0221L31.506 32.245L31.4051 32.3406C24.5265 38.3912 13.9856 38.1152 7.75981 31.3852C4.76997 28.1205 3.19066 23.807 3.36561 19.3835C3.54056 14.9601 5.45561 10.7848 8.69395 7.76638V7.76638Z" fill="url(#paint0_radial_67_23646)"/>
<path d="M8.69917 7.75585C11.965 4.7757 16.2726 3.20075 20.6904 3.37159C25.1083 3.54242 29.2814 5.44531 32.3073 8.66876C32.3073 8.66876 22.828 17.5855 22.4405 17.8987C22.4405 17.8987 20.3175 19.9262 20.3546 19.9899C20.4343 20.1809 31.7235 31.9691 31.7235 31.9691L31.49 32.192L31.3891 32.2876C24.5264 38.3276 13.9802 38.0304 7.77565 31.3216C4.79029 28.0659 3.21226 23.7624 3.38523 19.3486C3.55821 14.9347 5.46818 10.768 8.69917 7.75585V7.75585Z" fill="url(#paint1_radial_67_23646)"/>
<path d="M8.70995 7.75051C11.9759 4.77426 16.2816 3.20226 20.6969 3.37406C25.1122 3.54587 29.2827 5.4477 32.3075 8.66872C32.3075 8.66872 23.0988 17.3785 22.5044 17.8509C22.5044 17.8509 20.4557 19.8465 20.4928 19.9421C20.6149 20.2287 31.7024 31.9213 31.7024 31.9213L31.4636 32.1442L31.3628 32.2345C24.5213 38.2586 13.9804 37.9507 7.78642 31.2579C4.80589 28.0113 3.23025 23.7177 3.40326 19.3138C3.57627 14.91 5.48389 10.7533 8.70995 7.75051V7.75051Z" fill="url(#paint2_radial_67_23646)"/>
<path d="M8.71534 7.74521C11.9817 4.77126 16.2866 3.20119 20.7007 3.37397C25.1147 3.54676 29.2837 5.44855 32.3076 8.66873C32.3076 8.66873 23.3643 17.1609 22.5735 17.8031C22.5735 17.8031 20.5884 19.7722 20.6415 19.8996C20.8007 20.2818 31.6813 31.8736 31.6813 31.8736L31.4478 32.0912C31.4478 32.0912 31.3469 32.1814 31.3469 32.1867C24.5214 38.1896 13.9805 37.8605 7.80243 31.1942C4.82668 27.9575 3.25246 23.6749 3.4235 19.2815C3.59454 14.888 5.49696 10.7408 8.71534 7.74521V7.74521Z" fill="url(#paint3_radial_67_23646)"/>
<path d="M8.72575 7.7345C11.9929 4.76513 16.2963 3.19892 20.7078 3.37367C25.1193 3.54842 29.2853 5.45013 32.3074 8.66864C32.3074 8.66864 23.6348 16.9697 22.6423 17.7552C22.6423 17.7552 20.7209 19.6925 20.7846 19.8517C20.9863 20.3294 31.6652 31.8204 31.6599 31.8257L31.4263 32.0433L31.3255 32.1388C24.5158 38.1152 13.9803 37.7808 7.81816 31.1304C4.84755 27.902 3.27553 23.6291 3.4456 19.2452C3.61566 14.8614 5.51398 10.7231 8.72575 7.7345V7.7345Z" fill="url(#paint4_radial_67_23646)"/>
<path d="M8.73126 7.72933C11.9989 4.76225 16.3015 3.19797 20.7117 3.37371C25.1219 3.54944 29.2864 5.45111 32.3076 8.66878C32.3076 8.66878 23.9004 16.7682 22.7115 17.6917C22.7115 17.6917 20.8538 19.5971 20.9334 19.7882C21.1723 20.3614 31.6441 31.7515 31.6441 31.7515L31.4106 32.0222L31.3098 32.1124C24.5107 38.0463 13.9805 37.7013 7.82897 31.0668C4.86383 27.8477 3.29415 23.5853 3.46324 19.2119C3.63233 14.8385 5.52642 10.71 8.73126 7.72933V7.72933Z" fill="url(#paint5_radial_67_23646)"/>
<path d="M8.74164 7.72404C12.0096 4.75925 16.3115 3.19691 20.7205 3.37362C25.1294 3.55033 29.2924 5.45196 32.3127 8.6688C32.3127 8.6688 24.1708 16.5665 22.7855 17.6917C22.7855 17.6917 20.9863 19.5653 21.0765 19.7882C21.379 20.4304 31.628 31.725 31.6227 31.725L31.3892 31.9426L31.2883 32.0381C24.5105 37.9773 13.9802 37.6164 7.84466 31.0032C4.88365 27.7938 3.31543 23.5417 3.48356 19.1783C3.65169 14.8149 5.54246 10.696 8.74164 7.72404V7.72404Z" fill="url(#paint6_radial_67_23646)"/>
<path d="M8.74682 7.71339C12.0159 4.75156 16.3174 3.19207 20.7251 3.37076C25.1327 3.54945 29.2939 5.45202 32.3125 8.66876C32.3125 8.66876 24.4361 16.3595 22.8544 17.6174C22.8544 17.6174 21.1188 19.4644 21.225 19.7404C21.5434 20.5047 31.6066 31.6984 31.6013 31.6984C31.596 31.6984 31.3837 31.9054 31.3678 31.916L31.2669 32.0063C24.5051 37.9083 13.9748 37.5368 7.85515 30.9607C4.8914 27.7593 3.32042 23.5119 3.48763 19.1524C3.65484 14.793 5.54656 10.6784 8.74682 7.71339V7.71339Z" fill="url(#paint7_radial_67_23646)"/>
<path d="M8.75769 7.70808C12.0269 4.75014 16.3265 3.19358 20.7316 3.37324C25.1367 3.5529 29.2953 5.45442 32.3128 8.66875C32.3128 8.66875 24.707 16.1578 22.9236 17.5696C22.9236 17.5696 21.2518 19.3848 21.3738 19.6926C21.7294 20.5525 31.5856 31.6453 31.5856 31.6506L31.3521 31.8683L31.2513 31.9585C24.5053 37.8605 13.975 37.4731 7.89786 30.897C4.93754 27.7076 3.36512 23.473 3.52636 19.1245C3.6876 14.776 5.5693 10.6695 8.75769 7.70808V7.70808Z" fill="url(#paint8_radial_67_23646)"/>
<path d="M8.76286 7.7028C12.0325 4.74715 16.3313 3.19252 20.7352 3.37316C25.139 3.5538 29.2961 5.45528 32.3126 8.66878C32.3126 8.66878 24.9722 15.9508 22.9713 17.5219C22.9713 17.5219 21.379 19.3105 21.4958 19.6449C21.9098 20.5843 31.5696 31.5764 31.5643 31.5817L31.3307 31.794C31.3307 31.794 31.2405 31.8789 31.2299 31.8895C24.4999 37.7703 13.9749 37.367 7.87649 30.828C6.41619 29.2514 5.28073 27.4026 4.53496 25.3872C3.78919 23.3718 3.4477 21.2292 3.53001 19.0818C3.61232 16.9344 4.11681 14.8243 5.01466 12.8718C5.91252 10.9194 7.18616 9.16297 8.76286 7.7028V7.7028Z" fill="url(#paint9_radial_67_23646)"/>
<path d="M8.77371 7.69189C12.0441 4.74081 16.3415 3.19003 20.7428 3.37263C25.144 3.55523 29.2981 5.45665 32.3129 8.66849C32.3129 8.66849 25.2432 15.7488 23.0618 17.4738C23.0618 17.4738 21.5172 19.2359 21.6659 19.5968C22.1011 20.6584 31.5486 31.5442 31.5486 31.5495L31.3151 31.7618L31.2142 31.8521C24.4948 37.7011 13.9752 37.2871 7.89796 30.7534C4.95648 27.5789 3.39631 23.366 3.56054 19.0413C3.72476 14.7166 5.59995 10.6342 8.77371 7.69189V7.69189Z" fill="url(#paint10_radial_67_23646)"/>
<path d="M8.77893 7.68697C12.0506 4.73785 16.3481 3.18885 20.749 3.37243C25.1498 3.556 29.3034 5.45752 32.3181 8.66888C32.3181 8.66888 25.5085 15.5688 23.1307 17.4317C23.1307 17.4317 21.6552 19.1567 21.8091 19.5548C22.2868 20.6853 31.5326 31.4916 31.5273 31.4916L31.2937 31.7092L31.1929 31.7994C24.4947 37.6378 13.9751 37.2131 7.91379 30.7007C6.45809 29.1335 5.32563 27.2947 4.58118 25.2895C3.83674 23.2843 3.49492 21.1519 3.57527 19.0145C3.65562 16.877 4.15657 14.7764 5.04946 12.8327C5.94236 10.889 7.20967 9.14044 8.77893 7.68697V7.68697Z" fill="url(#paint11_radial_67_23646)"/>
<path d="M8.78944 7.68131C12.0613 4.73608 16.3568 3.19001 20.7551 3.37455C25.1535 3.5591 29.3044 5.45957 32.318 8.66852C32.318 8.66852 25.7791 15.3402 23.1996 17.3836C23.1996 17.3836 21.7877 19.082 21.9576 19.5066C22.4883 20.7486 31.5113 31.4434 31.5113 31.4487L31.2777 31.6663C31.2777 31.6663 31.1875 31.746 31.1822 31.7566C24.4946 37.5949 13.9803 37.1332 7.92961 30.642C1.87895 24.1508 2.18148 13.6736 8.78944 7.68131Z" fill="url(#paint12_radial_67_23646)"/>
<path d="M8.7947 7.67081C12.0676 4.72854 16.3628 3.18531 20.7598 3.37183C25.1569 3.55834 29.306 5.45977 32.3179 8.66864C32.3179 8.66864 26.0444 15.128 23.295 17.3253C23.295 17.3253 21.9416 18.9919 22.1274 19.4484C22.6847 20.7859 31.5112 31.3798 31.5112 31.3851L31.2777 31.5975L31.1768 31.6877C24.4839 37.4889 13.9484 37.0377 7.94018 30.5625C1.93198 24.0872 2.20267 13.6472 8.7947 7.67081Z" fill="url(#paint13_radial_67_23646)"/>
<path d="M8.80537 7.66553C12.0784 4.72715 16.3717 3.18683 20.7662 3.37432C25.1607 3.56181 29.3072 5.46219 32.318 8.66866C32.318 8.66866 26.3151 14.9316 23.3429 17.2882C23.3429 17.2882 22.0531 18.9282 22.2495 19.4112C22.8493 20.839 31.4635 31.3321 31.4635 31.3374L31.23 31.5497L31.1291 31.6399C24.484 37.4199 13.9484 36.9528 7.95085 30.4988C1.95327 24.0448 2.22396 13.6207 8.80537 7.66553Z" fill="url(#paint14_radial_67_23646)"/>
<path d="M8.81063 7.66027C12.084 4.72417 16.3766 3.18578 20.7698 3.37425C25.163 3.56271 29.308 5.46306 32.318 8.66871C32.318 8.66871 26.5805 14.73 23.4118 17.2405C23.4118 17.2405 22.1858 18.8328 22.3981 19.3635C23.035 20.8762 31.4634 31.2844 31.4634 31.2897L31.2352 31.502L31.1344 31.5922C24.4786 37.3297 13.9484 36.8733 7.96672 30.4299C1.98506 23.9864 2.23983 13.5995 8.81063 7.66027Z" fill="url(#paint15_radial_67_23646)"/>
<path d="M8.82144 7.64961C12.0971 4.71902 16.3887 3.18516 20.7799 3.37557C25.171 3.56597 29.3137 5.46554 32.3234 8.66867C32.3234 8.66867 26.8513 14.507 23.5022 17.1927C23.5022 17.1927 22.3399 18.785 22.5628 19.3157C23.2209 20.9398 31.4636 31.2313 31.4318 31.2366L31.1982 31.4489C31.1672 31.4817 31.1334 31.5119 31.0974 31.5391C24.4788 37.2819 13.9486 36.7989 7.98284 30.3714C2.01711 23.9439 2.27188 13.5729 8.82144 7.64961Z" fill="url(#paint16_radial_67_23646)"/>
<path d="M8.82681 7.64445C12.1064 4.71826 16.4006 3.19112 20.7914 3.38948C25.1822 3.58784 29.3211 5.49598 32.3235 8.70597C32.3235 8.70597 27.1168 14.3214 23.5501 17.161C23.5501 17.161 22.4514 18.7108 22.6902 19.284C23.4068 21.009 31.4159 31.2049 31.4106 31.2102C31.4053 31.2155 31.2142 31.3959 31.1771 31.4225L31.0815 31.5127C24.4736 37.2131 13.9486 36.7035 7.99352 30.3079C2.0384 23.9122 2.27194 13.5465 8.82681 7.64445Z" fill="url(#paint17_radial_67_23646)"/>
<path d="M8.83722 7.63883C12.1157 4.71457 16.4078 3.18857 20.7964 3.38693C25.1851 3.58528 29.3221 5.49227 32.3233 8.70035C32.3233 8.70035 27.3873 14.13 23.6189 17.1182C23.6189 17.1182 22.5839 18.6362 22.8333 19.2412C23.5923 21.0617 31.3998 31.1568 31.3892 31.1621L31.161 31.3744L31.0601 31.4646C24.4681 37.1438 13.9484 36.6236 8.00923 30.2439C2.07004 23.8641 2.29826 13.5196 8.83722 7.63883Z" fill="url(#paint18_radial_67_23646)"/>
<path d="M8.84255 7.60705C12.1213 4.68568 16.412 3.16152 20.7989 3.35984C25.1859 3.55816 29.3216 5.46328 32.3233 8.66857C32.3233 8.66857 27.6527 13.8966 23.6932 17.0387C23.6932 17.0387 22.7166 18.5248 22.982 19.1617C23.7781 21.0777 31.3786 31.0773 31.3733 31.0826L31.1397 31.2949L31.0389 31.3798C24.4681 37.0748 13.9485 36.5388 8.01987 30.1856C2.09129 23.8324 2.31952 13.4932 8.84255 7.60705Z" fill="url(#paint19_radial_67_23646)"/>
<path d="M8.8531 7.60717C12.1307 4.68774 16.4194 3.16471 20.8041 3.36302C25.1889 3.56134 29.3226 5.4653 32.3233 8.66869C29.6846 11.6606 26.8226 14.4481 23.7621 17.0069C23.7621 17.0069 22.8492 18.4665 23.1305 19.13C23.9638 21.1415 31.3573 31.0349 31.352 31.0455L31.1238 31.2525L31.0229 31.3428C24.4627 37.006 13.9484 36.4593 8.03573 30.122C2.12307 23.7847 2.33538 13.4455 8.8531 7.60717Z" fill="url(#paint20_radial_67_23646)"/>
<path d="M8.85831 7.60715C12.1365 4.68899 16.4249 3.16681 20.8093 3.3651C25.1936 3.5634 29.3271 5.4665 32.3285 8.66866C29.7267 11.6525 26.8867 14.4197 23.8363 16.9432C23.8363 16.9432 22.9924 18.371 23.3056 19.0662C24.1813 21.1893 31.3731 30.9712 31.3625 30.9765L31.1343 31.1888L31.0334 31.279C24.4626 36.9316 13.9483 36.3743 8.04625 30.0583C2.14421 23.7422 2.35651 13.4455 8.85831 7.60715Z" fill="url(#paint21_radial_67_23646)"/>
<path d="M8.86906 7.60711C12.1473 4.69344 16.4331 3.17407 20.8145 3.37233C25.1959 3.57058 29.327 5.47081 32.3286 8.66863C29.7678 11.6546 26.9472 14.4076 23.9002 16.8954C23.9002 16.8954 23.12 18.2966 23.4225 19.0185C24.3354 21.2423 31.3202 30.9606 31.3149 30.9606C31.3096 30.9606 31.1291 31.1357 31.0813 31.1729L30.9858 31.2578C24.4575 36.8626 13.9484 36.2682 8.0623 29.9946C2.17618 23.721 2.37256 13.4455 8.86906 7.60711Z" fill="url(#paint22_radial_67_23646)"/>
<path d="M8.87433 7.60722C12.1522 4.69516 16.4369 3.17678 20.817 3.37502C25.1972 3.57326 29.3271 5.47248 32.3286 8.66874C29.8091 11.6601 27.01 14.4042 23.9691 16.8637C23.9691 16.8637 23.2526 18.233 23.5658 18.9867C24.5264 21.2849 31.3042 30.8864 31.2936 30.8917L31.0654 31.0987L30.9645 31.1889C24.4521 36.799 13.9484 36.2099 8.07819 29.931C2.20799 23.6521 2.39376 13.3925 8.87433 7.60722Z" fill="url(#paint23_radial_67_23646)"/>
<path d="M8.87966 7.60722C12.1573 4.69676 16.4408 3.17936 20.8196 3.37759C25.1985 3.57582 29.3274 5.47404 32.3286 8.66874C29.8522 11.6653 27.0721 14.3974 24.0328 16.8212C24.0328 16.8212 23.38 18.1587 23.7091 18.9442C24.7069 21.338 31.2777 30.8333 31.2724 30.8439L31.0389 31.0509L30.938 31.1411C24.4521 36.7247 13.9484 36.1249 8.11006 29.8673C2.2717 23.6096 2.41501 13.366 8.87966 7.60722Z" fill="url(#paint24_radial_67_23646)"/>
<path d="M8.89031 7.6072C12.1674 4.69995 16.4486 3.18453 20.8249 3.38273C25.2011 3.58094 29.3278 5.47715 32.3287 8.66872C29.8987 11.6663 27.143 14.3846 24.1125 16.7734C24.1125 16.7734 23.5181 18.0844 23.863 18.8965C24.9246 21.3857 31.2937 30.7855 31.2565 30.7961L31.0283 31.0031L30.9275 31.088C24.4469 36.6557 13.9485 36.04 8.1101 29.8036C2.27174 23.5671 2.43097 13.3394 8.89031 7.6072Z" fill="url(#paint25_radial_67_23646)"/>
<path d="M8.89557 7.6072C12.1729 4.70281 16.4527 3.18922 20.8273 3.38739C25.2019 3.58556 29.3273 5.47991 32.3286 8.66872C29.9475 11.6728 27.2119 14.3781 24.1814 16.7257C24.1814 16.7257 23.6507 18.0048 24.0063 18.8487C25.0678 21.4335 31.2459 30.7324 31.2352 30.7377C31.2246 30.743 31.0601 30.9023 31.007 30.9447L30.9062 31.0349C24.4468 36.5867 13.9484 35.9604 8.11004 29.7399C2.27169 23.5194 2.45215 13.3129 8.89557 7.6072Z" fill="url(#paint26_radial_67_23646)"/>
<path d="M8.90612 7.57552C12.1872 4.67676 16.4682 3.16969 20.8416 3.3738C25.215 3.5779 29.337 5.47713 32.3338 8.66889C32.3338 8.66889 29.7968 12.2781 24.2504 16.6781C24.2504 16.6781 23.7833 17.9306 24.1548 18.8011C25.2694 21.4549 31.2245 30.6848 31.2192 30.6901L30.9857 30.8971L30.8902 30.9873C24.4414 36.5178 13.9483 35.8756 8.10998 29.6764C2.27163 23.4771 2.46801 13.2865 8.90612 7.57552Z" fill="url(#paint27_radial_67_23646)"/>
<path d="M8.91151 7.56473C12.1942 4.67017 16.4746 3.16677 20.8463 3.37282C25.2181 3.57888 29.338 5.47822 32.3339 8.66871C32.3339 8.66871 30.0676 12.055 24.3195 16.6301C24.1053 17.3216 24.1053 18.0617 24.3195 18.7532C25.4765 21.529 31.2193 30.6263 31.2193 30.6369L30.9911 30.8439L30.8903 30.9288C24.4362 36.4487 13.9484 35.7959 8.14721 29.6178C2.34601 23.4398 2.48932 13.2651 8.91151 7.56473Z" fill="url(#paint28_radial_67_23646)"/>
<path d="M8.92217 7.55941C12.2038 4.66617 16.4828 3.164 20.8528 3.37106C25.2228 3.57811 29.3406 5.47814 32.334 8.66869C32.334 8.66869 30.333 11.8533 24.3726 16.5611C24.1851 17.2594 24.2053 17.9972 24.431 18.6841C25.6252 21.5927 31.1875 30.5944 31.1769 30.605L30.9487 30.812L30.8532 30.8969C24.4363 36.3797 13.9485 35.7374 8.15788 29.5541C2.36729 23.3707 2.5106 13.2385 8.92217 7.55941Z" fill="url(#paint29_radial_67_23646)"/>
<path d="M8.92765 7.55407C12.2097 4.66311 16.4879 3.16284 20.8566 3.37088C25.2254 3.57892 29.3417 5.47892 32.3341 8.66867C32.3341 8.66867 30.6039 11.6675 24.4577 16.5398C24.3098 17.2465 24.3557 17.9801 24.5904 18.6629C25.827 21.6298 31.1718 30.5306 31.1612 30.5413L30.9329 30.743L30.8321 30.8332C24.4311 36.3106 13.9486 35.6259 8.17397 29.4904C2.30908 23.2699 2.5267 13.212 8.92765 7.55407Z" fill="url(#paint30_radial_67_23646)"/>
<path d="M8.93801 7.54355C12.2213 4.65839 16.4978 3.16276 20.8636 3.37273C25.2294 3.5827 29.3426 5.48182 32.3339 8.66876C32.3339 8.66876 30.869 11.4446 24.5264 16.4709C24.417 17.1852 24.49 17.9155 24.7387 18.594C26.0125 21.6565 31.1503 30.4618 31.1397 30.4671L30.9115 30.6741L30.8106 30.759C24.4415 36.1993 13.959 35.5358 8.18433 29.3896C2.40967 23.2434 2.54767 13.1855 8.93801 7.54355Z" fill="url(#paint31_radial_67_23646)"/>
<path d="M8.9436 7.53799C12.2282 4.65476 16.5047 3.16088 20.8702 3.37182C25.2356 3.58277 29.3482 5.48202 32.3395 8.66851C32.3395 8.66851 31.14 11.2374 24.601 16.4229C24.5294 17.1433 24.6275 17.8704 24.8876 18.5459C26.1986 21.7464 31.1293 30.4297 31.1187 30.4562L30.8905 30.6632L30.795 30.7481C24.4258 36.1672 13.9487 35.4613 8.20054 29.3681C2.36219 23.1795 2.56918 13.1587 8.9436 7.53799Z" fill="url(#paint32_radial_67_23646)"/>
<path d="M8.95406 7.53292C12.2381 4.65228 16.5131 3.16046 20.8763 3.37239C25.2396 3.58431 29.3499 5.4834 32.3393 8.66874C32.3393 8.66874 31.4052 11.0572 24.6698 16.3966C24.6398 17.1218 24.7628 17.8451 25.0308 18.5196C26.3842 21.7944 31.1133 30.398 31.1026 30.4299L30.8744 30.6316L30.7736 30.7165C24.4204 36.0984 13.9485 35.3819 8.21099 29.2994C2.38856 23.1319 2.58494 13.1324 8.95406 7.53292Z" fill="url(#paint33_radial_67_23646)"/>
<path d="M8.95952 7.52216C12.2452 4.64572 16.5195 3.15756 20.8811 3.37143C25.2428 3.58531 29.3509 5.48451 32.3395 8.6686C32.3395 8.6686 31.676 10.85 24.739 16.3487C24.7504 17.0864 24.8998 17.8155 25.1795 18.4983C26.5754 21.8474 31.0922 30.3501 31.0816 30.3607L30.8533 30.5624L30.7578 30.6474C24.4205 36.0293 13.9487 35.2968 8.22707 29.2355C2.41525 23.0893 2.60633 13.1058 8.95952 7.52216Z" fill="url(#paint34_radial_67_23646)"/>
<path d="M8.9699 7.517C12.2574 4.65187 16.5279 3.1732 20.8833 3.39196C25.2386 3.61071 29.3394 5.50985 32.3233 8.68998C32.3233 8.68998 31.9252 10.6485 24.7918 16.3011C24.8534 17.0412 25.0326 17.7669 25.3226 18.4506C26.761 21.9006 31.076 30.3025 31.0654 30.3131L30.8372 30.5148C30.8012 30.5402 30.7675 30.5686 30.7363 30.5997C24.415 35.9604 13.9484 35.2067 8.24276 29.172C2.44156 23.0417 2.62202 13.0847 8.9699 7.517Z" fill="url(#paint35_radial_67_23646)"/>
<path d="M8.97507 7.51167C12.2627 4.64594 16.5339 3.16737 20.8896 3.38714C25.2454 3.6069 29.346 5.50787 32.3285 8.68996C32.3285 8.68996 32.2011 10.4468 24.866 16.2533C24.9702 16.9943 25.17 17.7186 25.4605 18.4082C26.9466 21.9377 31.0547 30.2494 31.0441 30.26L30.8158 30.4617C30.784 30.4617 30.7468 30.5254 30.715 30.5467C24.4096 35.8914 13.9483 35.1324 8.25324 29.1083C2.46796 22.9992 2.64311 13.0581 8.97507 7.51167Z" fill="url(#paint36_radial_67_23646)"/>
<path d="M8.98567 7.50096C12.2758 4.63908 16.5471 3.164 20.9021 3.38571C25.2571 3.60741 29.3566 5.50865 32.3391 8.68986C32.3391 8.68986 32.4771 10.2609 24.9456 16.2107C25.0998 16.9481 25.3274 17.6682 25.625 18.3603C27.1376 22.0013 31.044 30.2016 31.0281 30.2122C31.0122 30.2228 30.8742 30.3555 30.7999 30.4139L30.7043 30.4988C24.4148 35.8329 13.9483 35.0474 8.26914 29.0445C2.48917 22.9514 2.66432 13.0315 8.98567 7.50096Z" fill="url(#paint37_radial_67_23646)"/>
<path d="M8.99116 7.49569C12.282 4.63388 16.5545 3.15982 20.9099 3.38353C25.2653 3.60724 29.3642 5.51129 32.3446 8.6952C32.3446 8.6952 32.7479 10.038 25.0201 16.163C25.2185 16.8973 25.4668 17.6173 25.7631 18.3179C27.3183 22.0332 31.0177 30.1538 31.007 30.1645L30.7788 30.3661L30.678 30.4511C24.4097 35.7374 13.9485 34.9625 8.27995 28.9862C2.51591 22.9037 2.68044 13.005 8.99116 7.49569Z" fill="url(#paint38_radial_67_23646)"/>
<path d="M9.00197 7.49049C12.2935 4.62936 16.5663 3.15621 20.9218 3.38091C25.2772 3.60562 29.3758 5.51065 32.3554 8.69532C32.3554 8.69532 33.0135 9.83114 25.0946 16.0994C25.0946 16.0994 25.3865 16.9911 25.9173 18.2543C27.5096 22.0864 31.002 30.0902 30.9913 30.1009L30.7631 30.3025L30.6676 30.3822C24.4046 35.6844 13.9486 34.883 8.29606 28.9226C2.54262 22.856 2.70185 12.9785 9.00197 7.49049Z" fill="url(#paint39_radial_67_23646)"/>
<path d="M30.9647 30.0689C24.7654 35.6419 14.0494 34.9041 8.30661 28.8375C2.56379 22.771 2.71771 12.9147 9.00721 7.45853C12.3006 4.59999 16.574 3.12951 20.929 3.35617C25.2841 3.58283 29.3817 5.48898 32.3606 8.67397C32.3606 8.67397 33.3001 9.60811 25.1741 16.0462C25.1582 16.0675 30.9859 30.053 30.9647 30.0689Z" fill="url(#paint40_radial_67_23646)"/>
<path d="M24.9244 16.2466C22.3821 18.3325 19.2559 20.7899 15.6202 23.5445C18.3211 26.4653 21.4623 28.9456 24.9298 30.8956C27.9073 32.4878 30.2373 32.7851 31.3785 31.7766C32.5196 30.7682 32.3816 28.4434 31.0547 25.4075C29.4837 22.0629 27.417 18.9745 24.9244 16.2466V16.2466Z" fill="url(#paint41_linear_67_23646)"/>
<path d="M25.1528 16.0397L23.879 17.1012C26.2113 19.6651 28.1503 22.561 29.6324 25.6942C30.9328 28.6877 30.9009 30.1897 30.4816 30.5666C30.0623 30.9434 28.2524 31.0389 25.3598 29.5051C22.1555 27.6879 19.2574 25.3773 16.7721 22.6582L15.3497 23.7198L15.684 24.0435C21.7082 30.2693 28.2259 33.8148 31.092 32.5251C31.1769 32.4826 31.2618 32.4402 31.3415 32.3924H31.3733C31.4841 32.3236 31.5889 32.2455 31.6864 32.1589C31.7898 32.0654 31.884 31.9623 31.9677 31.851C33.8413 29.3936 30.9965 22.775 25.3279 16.2891L25.1528 16.0397Z" fill="#84EEB1"/>
<defs>
<radialGradient id="paint0_radial_67_23646" cx="0" cy="0" r="1" gradientTransform="matrix(76.3497 -3.05399 2.29049 56.4989 24.2816 5.2217)" gradientUnits="userSpaceOnUse">
<stop stop-color="#03BA50"/>
<stop offset="0.8" stop-color="#01B64E"/>
</radialGradient>
<radialGradient id="paint1_radial_67_23646" cx="0" cy="0" r="1" gradientTransform="matrix(76.1905 -3.04762 2.28571 56.381 24.2738 5.21563)" gradientUnits="userSpaceOnUse">
<stop stop-color="#04BC50"/>
<stop offset="0.8" stop-color="#01B34D"/>
</radialGradient>
<radialGradient id="paint2_radial_67_23646" cx="0" cy="0" r="1" gradientTransform="matrix(76.0313 -3.04125 2.28094 56.2632 24.2557 5.22993)" gradientUnits="userSpaceOnUse">
<stop stop-color="#06BD51"/>
<stop offset="0.72" stop-color="#02B24C"/>
<stop offset="0.8" stop-color="#01B04B"/>
</radialGradient>
<radialGradient id="paint3_radial_67_23646" cx="0" cy="0" r="1" gradientTransform="matrix(75.8721 -3.03489 2.27616 56.1454 24.2272 5.25393)" gradientUnits="userSpaceOnUse">
<stop stop-color="#08BF52"/>
<stop offset="0.56" stop-color="#04B44D"/>
<stop offset="0.8" stop-color="#01AD4A"/>
</radialGradient>
<radialGradient id="paint4_radial_67_23646" cx="0" cy="0" r="1" gradientTransform="matrix(75.7128 -3.02852 2.27138 56.0275 24.1984 5.27687)" gradientUnits="userSpaceOnUse">
<stop stop-color="#0AC053"/>
<stop offset="0.48" stop-color="#05B54E"/>
<stop offset="0.8" stop-color="#01AA49"/>
</radialGradient>
<radialGradient id="paint5_radial_67_23646" cx="0" cy="0" r="1" gradientTransform="matrix(75.5483 -2.26645 2.26645 55.9058 24.1652 5.33438)" gradientUnits="userSpaceOnUse">
<stop stop-color="#0BC253"/>
<stop offset="0.42" stop-color="#07B74E"/>
<stop offset="0.8" stop-color="#01A848"/>
</radialGradient>
<radialGradient id="paint6_radial_67_23646" cx="0" cy="0" r="1" gradientTransform="matrix(75.3891 -2.26167 2.26167 55.7879 24.121 5.3489)" gradientUnits="userSpaceOnUse">
<stop stop-color="#0DC354"/>
<stop offset="0.37" stop-color="#08B84F"/>
<stop offset="0.8" stop-color="#01A546"/>
</radialGradient>
<radialGradient id="paint7_radial_67_23646" cx="0" cy="0" r="1" gradientTransform="matrix(75.2298 -2.2569 1.5046 55.6701 24.6814 5.36367)" gradientUnits="userSpaceOnUse">
<stop stop-color="#0FC555"/>
<stop offset="0.33" stop-color="#0ABA50"/>
<stop offset="0.8" stop-color="#01A245"/>
</radialGradient>
<radialGradient id="paint8_radial_67_23646" cx="0" cy="0" r="1" gradientTransform="matrix(75.8213 -2.25212 1.50141 55.5523 24.6257 5.39057)" gradientUnits="userSpaceOnUse">
<stop stop-color="#11C656"/>
<stop offset="0.3" stop-color="#0CBB51"/>
<stop offset="0.8" stop-color="#019F44"/>
</radialGradient>
<radialGradient id="paint9_radial_67_23646" cx="0" cy="0" r="1" gradientTransform="matrix(75.6605 -2.24734 1.49823 55.4345 24.6069 5.41782)" gradientUnits="userSpaceOnUse">
<stop stop-color="#12C856"/>
<stop offset="0.28" stop-color="#0EBD51"/>
<stop offset="0.77" stop-color="#029E44"/>
<stop offset="0.8" stop-color="#019C43"/>
</radialGradient>
<radialGradient id="paint10_radial_67_23646" cx="0" cy="0" r="1" gradientTransform="matrix(75.4943 -2.24241 1.49494 55.3127 24.5885 5.45431)" gradientUnits="userSpaceOnUse">
<stop stop-color="#14C957"/>
<stop offset="0.26" stop-color="#0FBE52"/>
<stop offset="0.72" stop-color="#049F44"/>
<stop offset="0.8" stop-color="#019941"/>
</radialGradient>
<radialGradient id="paint11_radial_67_23646" cx="0" cy="0" r="1" gradientTransform="matrix(75.3335 -2.23763 1.49175 55.1949 24.5539 5.49981)" gradientUnits="userSpaceOnUse">
<stop stop-color="#16CB58"/>
<stop offset="0.24" stop-color="#11C053"/>
<stop offset="0.66" stop-color="#06A145"/>
<stop offset="0.8" stop-color="#019640"/>
</radialGradient>
<radialGradient id="paint12_radial_67_23646" cx="0" cy="0" r="1" gradientTransform="matrix(75.1727 -2.23285 1.48857 55.0771 24.5141 5.54866)" gradientUnits="userSpaceOnUse">
<stop stop-color="#18CC59"/>
<stop offset="0.23" stop-color="#13C154"/>
<stop offset="0.62" stop-color="#07A246"/>
<stop offset="0.8" stop-color="#01933F"/>
</radialGradient>
<radialGradient id="paint13_radial_67_23646" cx="0" cy="0" r="1" gradientTransform="matrix(75.0064 -2.22792 1.48528 54.9553 24.4743 5.60753)" gradientUnits="userSpaceOnUse">
<stop stop-color="#19CD59"/>
<stop offset="0.21" stop-color="#15C254"/>
<stop offset="0.59" stop-color="#09A347"/>
<stop offset="0.8" stop-color="#01903E"/>
</radialGradient>
<radialGradient id="paint14_radial_67_23646" cx="0" cy="0" r="1" gradientTransform="matrix(74.8457 -2.22314 1.48209 54.8375 24.424 5.67056)" gradientUnits="userSpaceOnUse">
<stop stop-color="#1BCF5A"/>
<stop offset="0.2" stop-color="#17C455"/>
<stop offset="0.56" stop-color="#0BA547"/>
<stop offset="0.8" stop-color="#018D3C"/>
</radialGradient>
<radialGradient id="paint15_radial_67_23646" cx="0" cy="0" r="1" gradientTransform="matrix(74.6849 -1.47891 1.47891 54.7196 24.3684 5.44)" gradientUnits="userSpaceOnUse">
<stop stop-color="#1DD05B"/>
<stop offset="0.19" stop-color="#18C556"/>
<stop offset="0.54" stop-color="#0CA648"/>
<stop offset="0.8" stop-color="#018B3B"/>
</radialGradient>
<radialGradient id="paint16_radial_67_23646" cx="0" cy="0" r="1" gradientTransform="matrix(74.5186 -1.47562 1.47562 54.5979 24.3077 5.48782)" gradientUnits="userSpaceOnUse">
<stop stop-color="#1ED25B"/>
<stop offset="0.18" stop-color="#1AC756"/>
<stop offset="0.51" stop-color="#0EA848"/>
<stop offset="0.8" stop-color="#01883A"/>
</radialGradient>
<radialGradient id="paint17_radial_67_23646" cx="0" cy="0" r="1" gradientTransform="matrix(74.3578 -1.47243 1.47243 54.48 24.2469 5.53458)" gradientUnits="userSpaceOnUse">
<stop stop-color="#20D35C"/>
<stop offset="0.18" stop-color="#1BC857"/>
<stop offset="0.49" stop-color="#0FA949"/>
<stop offset="0.8" stop-color="#018539"/>
</radialGradient>
<radialGradient id="paint18_radial_67_23646" cx="0" cy="0" r="1" gradientTransform="matrix(74.197 -1.46925 1.46925 54.3622 24.1753 5.59965)" gradientUnits="userSpaceOnUse">
<stop stop-color="#22D55D"/>
<stop offset="0.17" stop-color="#1DCA58"/>
<stop offset="0.47" stop-color="#11AB4A"/>
<stop offset="0.8" stop-color="#018237"/>
</radialGradient>
<radialGradient id="paint19_radial_67_23646" cx="0" cy="0" r="1" gradientTransform="matrix(74.0308 -1.46596 1.46596 54.2405 24.0932 5.66001)" gradientUnits="userSpaceOnUse">
<stop stop-color="#24D65E"/>
<stop offset="0.16" stop-color="#1FCB59"/>
<stop offset="0.45" stop-color="#13AC4B"/>
<stop offset="0.8" stop-color="#017F36"/>
</radialGradient>
<radialGradient id="paint20_radial_67_23646" cx="0" cy="0" r="1" gradientTransform="matrix(73.87 -1.46277 1.46277 54.1227 24.0059 5.7338)" gradientUnits="userSpaceOnUse">
<stop stop-color="#25D85E"/>
<stop offset="0.15" stop-color="#20CD59"/>
<stop offset="0.43" stop-color="#14AE4B"/>
<stop offset="0.79" stop-color="#017D36"/>
<stop offset="0.8" stop-color="#007C35"/>
</radialGradient>
<radialGradient id="paint21_radial_67_23646" cx="0" cy="0" r="1" gradientTransform="matrix(73.7092 -1.45959 0.729794 54.0048 25.6122 5.81689)" gradientUnits="userSpaceOnUse">
<stop stop-color="#27D95F"/>
<stop offset="0.15" stop-color="#22CE5A"/>
<stop offset="0.42" stop-color="#16AF4C"/>
<stop offset="0.77" stop-color="#027E36"/>
<stop offset="0.8" stop-color="#007934"/>
</radialGradient>
<radialGradient id="paint22_radial_67_23646" cx="0" cy="0" r="1" gradientTransform="matrix(74.2712 -1.4563 0.728149 53.8831 25.0633 5.90263)" gradientUnits="userSpaceOnUse">
<stop stop-color="#29DB60"/>
<stop offset="0.14" stop-color="#24D05B"/>
<stop offset="0.4" stop-color="#18B14D"/>
<stop offset="0.74" stop-color="#048037"/>
<stop offset="0.8" stop-color="#007632"/>
</radialGradient>
<radialGradient id="paint23_radial_67_23646" cx="0" cy="0" r="1" gradientTransform="matrix(74.1088 -1.45311 0.726557 53.7652 24.9984 5.99806)" gradientUnits="userSpaceOnUse">
<stop stop-color="#2BDC61"/>
<stop offset="0.14" stop-color="#26D15C"/>
<stop offset="0.39" stop-color="#1AB24E"/>
<stop offset="0.71" stop-color="#068138"/>
<stop offset="0.8" stop-color="#007331"/>
</radialGradient>
<radialGradient id="paint24_radial_67_23646" cx="0" cy="0" r="1" gradientTransform="matrix(73.941 -1.44982 0.724911 53.6435 24.9336 6.10272)" gradientUnits="userSpaceOnUse">
<stop stop-color="#2CDE61"/>
<stop offset="0.13" stop-color="#27D35C"/>
<stop offset="0.37" stop-color="#1BB44E"/>
<stop offset="0.69" stop-color="#088339"/>
<stop offset="0.8" stop-color="#007030"/>
</radialGradient>
<radialGradient id="paint25_radial_67_23646" cx="0" cy="0" r="1" gradientTransform="matrix(73.7786 -0.723319 0.723319 53.5256 24.8633 5.57132)" gradientUnits="userSpaceOnUse">
<stop stop-color="#2EDF62"/>
<stop offset="0.13" stop-color="#29D45D"/>
<stop offset="0.37" stop-color="#1DB54F"/>
<stop offset="0.67" stop-color="#098439"/>
<stop offset="0.8" stop-color="#006E2F"/>
</radialGradient>
<radialGradient id="paint26_radial_67_23646" cx="0" cy="0" r="1" gradientTransform="matrix(73.6162 -0.721727 0.721727 53.4078 24.7821 5.65437)" gradientUnits="userSpaceOnUse">
<stop stop-color="#30E163"/>
<stop offset="0.13" stop-color="#2BD65E"/>
<stop offset="0.35" stop-color="#1FB750"/>
<stop offset="0.65" stop-color="#0B8639"/>
<stop offset="0.8" stop-color="#006B2D"/>
</radialGradient>
<radialGradient id="paint27_radial_67_23646" cx="0" cy="0" r="1" gradientTransform="matrix(73.4482 -0.720082 0.720081 53.286 24.7008 5.7469)" gradientUnits="userSpaceOnUse">
<stop stop-color="#31E263"/>
<stop offset="0.12" stop-color="#2CD75E"/>
<stop offset="0.34" stop-color="#20B850"/>
<stop offset="0.63" stop-color="#0D873A"/>
<stop offset="0.8" stop-color="#00682C"/>
</radialGradient>
<radialGradient id="paint28_radial_67_23646" cx="0" cy="0" r="1" gradientTransform="matrix(73.2859 -0.71849 0.718489 53.1682 24.6089 5.84311)" gradientUnits="userSpaceOnUse">
<stop stop-color="#33E364"/>
<stop offset="0.12" stop-color="#2ED85F"/>
<stop offset="0.34" stop-color="#22B951"/>
<stop offset="0.62" stop-color="#0E883B"/>
<stop offset="0.8" stop-color="#00652B"/>
</radialGradient>
<radialGradient id="paint29_radial_67_23646" cx="0" cy="0" r="1" gradientTransform="matrix(73.1181 -0.716844 0.716844 53.0465 24.5116 5.94744)" gradientUnits="userSpaceOnUse">
<stop stop-color="#35E565"/>
<stop offset="0.12" stop-color="#30DA60"/>
<stop offset="0.33" stop-color="#24BB52"/>
<stop offset="0.6" stop-color="#108A3C"/>
<stop offset="0.8" stop-color="#00622A"/>
</radialGradient>
<radialGradient id="paint30_radial_67_23646" cx="0" cy="0" r="1" gradientTransform="matrix(72.9556 -0.715251 0.715251 52.9286 24.4143 6.05574)" gradientUnits="userSpaceOnUse">
<stop stop-color="#37E666"/>
<stop offset="0.11" stop-color="#32DB61"/>
<stop offset="0.32" stop-color="#26BC53"/>
<stop offset="0.59" stop-color="#128B3C"/>
<stop offset="0.8" stop-color="#005F28"/>
</radialGradient>
<radialGradient id="paint31_radial_67_23646" cx="0" cy="0" r="1" gradientTransform="matrix(72.7878 -0.713607 0.713606 52.8069 24.3057 6.17356)" gradientUnits="userSpaceOnUse">
<stop stop-color="#38E866"/>
<stop offset="0.11" stop-color="#33DD61"/>
<stop offset="0.31" stop-color="#27BE53"/>
<stop offset="0.57" stop-color="#148D3D"/>
<stop offset="0.8" stop-color="#005C27"/>
</radialGradient>
<radialGradient id="paint32_radial_67_23646" cx="0" cy="0" r="1" gradientTransform="matrix(72.6254 -0.712014 0.712013 52.6891 24.1924 6.29893)" gradientUnits="userSpaceOnUse">
<stop stop-color="#3AE967"/>
<stop offset="0.11" stop-color="#35DE62"/>
<stop offset="0.3" stop-color="#29BF54"/>
<stop offset="0.56" stop-color="#158E3E"/>
<stop offset="0.8" stop-color="#005926"/>
</radialGradient>
<radialGradient id="paint33_radial_67_23646" cx="0" cy="0" r="1" gradientTransform="matrix(72.463 -0.710422 0.710422 52.5712 24.0784 6.42883)" gradientUnits="userSpaceOnUse">
<stop stop-color="#3CEB68"/>
<stop offset="0.11" stop-color="#37E063"/>
<stop offset="0.29" stop-color="#2BC155"/>
<stop offset="0.54" stop-color="#17903F"/>
<stop offset="0.8" stop-color="#005625"/>
</radialGradient>
<radialGradient id="paint34_radial_67_23646" cx="0" cy="0" r="1" gradientTransform="matrix(72.2952 -0.708776 0.708776 52.4494 23.9486 6.56775)" gradientUnits="userSpaceOnUse">
<stop stop-color="#3EEC69"/>
<stop offset="0.1" stop-color="#39E164"/>
<stop offset="0.29" stop-color="#2DC256"/>
<stop offset="0.53" stop-color="#19913F"/>
<stop offset="0.8" stop-color="#005323"/>
</radialGradient>
<radialGradient id="paint35_radial_67_23646" cx="0" cy="0" r="1" gradientTransform="matrix(72.1327 0 0.707184 52.3316 23.8185 5.74204)" gradientUnits="userSpaceOnUse">
<stop stop-color="#3FEE69"/>
<stop offset="0.1" stop-color="#3AE364"/>
<stop offset="0.28" stop-color="#2EC456"/>
<stop offset="0.52" stop-color="#1A9340"/>
<stop offset="0.8" stop-color="#005122"/>
</radialGradient>
<radialGradient id="paint36_radial_67_23646" cx="0" cy="0" r="1" gradientUnits="userSpaceOnUse" gradientTransform="translate(25.5212 5.85814) scale(72.6705 52.2099)">
<stop stop-color="#41EF6A"/>
<stop offset="0.1" stop-color="#3CE465"/>
<stop offset="0.28" stop-color="#30C557"/>
<stop offset="0.51" stop-color="#1C9441"/>
<stop offset="0.79" stop-color="#015022"/>
<stop offset="0.8" stop-color="#004E21"/>
</radialGradient>
<radialGradient id="paint37_radial_67_23646" cx="0" cy="0" r="1" gradientUnits="userSpaceOnUse" gradientTransform="translate(25.4163 5.98341) scale(72.5119 52.096)">
<stop stop-color="#43F16B"/>
<stop offset="0.1" stop-color="#3EE666"/>
<stop offset="0.27" stop-color="#32C758"/>
<stop offset="0.5" stop-color="#1E9642"/>
<stop offset="0.77" stop-color="#035223"/>
<stop offset="0.8" stop-color="#004B20"/>
</radialGradient>
<radialGradient id="paint38_radial_67_23646" cx="0" cy="0" r="1" gradientUnits="userSpaceOnUse" gradientTransform="translate(25.3168 6.11666) scale(72.3479 51.9782)">
<stop stop-color="#45F26C"/>
<stop offset="0.1" stop-color="#40E767"/>
<stop offset="0.27" stop-color="#34C859"/>
<stop offset="0.49" stop-color="#209742"/>
<stop offset="0.76" stop-color="#055323"/>
<stop offset="0.8" stop-color="#00481E"/>
</radialGradient>
<radialGradient id="paint39_radial_67_23646" cx="0" cy="0" r="1" gradientUnits="userSpaceOnUse" gradientTransform="translate(25.2118 6.25924) scale(72.1785 51.8564)">
<stop stop-color="#46F46C"/>
<stop offset="0.09" stop-color="#41E967"/>
<stop offset="0.26" stop-color="#35CA59"/>
<stop offset="0.48" stop-color="#229943"/>
<stop offset="0.74" stop-color="#065524"/>
<stop offset="0.8" stop-color="#00451D"/>
</radialGradient>
<radialGradient id="paint40_radial_67_23646" cx="0" cy="0" r="1" gradientUnits="userSpaceOnUse" gradientTransform="translate(25.1118 6.40943) scale(72.0089 51.7346)">
<stop stop-color="#48F56D"/>
<stop offset="0.09" stop-color="#43EA68"/>
<stop offset="0.25" stop-color="#37CB5A"/>
<stop offset="0.47" stop-color="#239A44"/>
<stop offset="0.73" stop-color="#085625"/>
<stop offset="0.8" stop-color="#00421C"/>
</radialGradient>
<linearGradient id="paint41_linear_67_23646" x1="26.2832" y1="43.6073" x2="20.0733" y2="-0.923504" gradientUnits="userSpaceOnUse">
<stop offset="0.1" stop-color="#FF8475"/>
<stop offset="0.37" stop-color="#E84E43"/>
<stop offset="0.6" stop-color="#D6261F"/>
<stop offset="0.79" stop-color="#CC0E08"/>
<stop offset="0.9" stop-color="#C80500"/>
</linearGradient>
</defs>
</svg>
