<svg width="84" height="28" viewBox="0 0 84 28" fill="none" xmlns="http://www.w3.org/2000/svg">
<path d="M70.7285 27.8321C63.5232 27.8321 63.4858 20.4401 65.9872 12.7867C68.6752 4.4614 72.7072 0.354736 77.2992 0.354736C84.5045 0.354736 84.5418 7.74674 82.0405 15.4001C79.3525 23.7254 75.3205 27.8321 70.7285 27.8321ZM71.3258 23.0907C72.5952 23.0907 73.9765 21.2614 76.1792 14.4294C77.6352 9.9494 78.9045 5.09607 76.7018 5.09607C75.4325 5.09607 74.0512 6.9254 71.8485 13.7574C70.3925 18.1627 69.0858 23.0907 71.3258 23.0907Z" fill="#FF4930"/>
<path d="M55.3487 17.3414L56.9913 12.3387H65.0553L60.0527 27.3467H55.834L56.2073 25.2187C54.9007 26.8241 53.6313 27.5334 51.802 27.5334C46.538 27.5334 46.314 20.4401 48.8153 12.7867C51.5407 4.46138 55.4233 0.317383 60.314 0.317383C64.57 0.317383 66.3993 3.41605 66.6233 7.26138L61.3593 9.01605C61.1727 5.99205 60.6127 5.13338 59.754 5.13338C58.2233 5.13338 56.8793 7.03738 54.6767 13.7574C53.1087 18.536 52.3993 22.9787 54.266 22.9787C55.9087 22.9787 57.2527 20.1787 58.074 17.6774L58.186 17.3414H55.3487Z" fill="#FF4930"/>
<path d="M41.1736 13.8694C41.0989 15.1014 40.9869 16.5947 40.9496 17.08C41.0989 16.632 41.4349 15.4 41.9203 14.0187L46.2509 0.840027H51.6643L42.8536 27.3467H36.5816L37.4029 13.6454C37.4776 12.4134 37.6269 10.92 37.6643 10.4347C37.5149 10.8827 37.1789 12.1147 36.6936 13.496L32.1389 27.3467H26.7256L35.5363 0.840027H41.9576L41.1736 13.8694Z" fill="#FF4930"/>
<path d="M22.0678 0.840027H30.0198L26.1744 27.3467H20.4998L21.3211 22.568H16.5798L14.3398 27.3467H8.3291L22.0678 0.840027ZM18.9691 17.5654H22.2171L23.6731 9.27736C23.8971 8.04536 24.1958 6.58936 24.2704 6.10403C24.0838 6.55203 23.5984 7.74669 22.9638 9.05336L18.9691 17.5654Z" fill="#FF4930"/>
<path d="M8.81071 7.44803C8.73604 8.68003 8.62404 10.1734 8.54937 10.6587C8.73604 10.2107 9.29604 9.05336 10.0054 7.78403L13.776 0.840027H20.384L8.96004 18.3494L5.97337 27.3467H0.074707L3.21071 17.9014L3.28537 0.840027H9.10938L8.81071 7.44803Z" fill="#FF4930"/>
</svg>
