<svg width="49" height="49" viewBox="0 0 49 49" fill="none" xmlns="http://www.w3.org/2000/svg">
<g clip-path="url(#clip0_939_331191)">
<g clip-path="url(#clip1_939_331191)">
<mask id="mask0_939_331191" style="mask-type:alpha" maskUnits="userSpaceOnUse" x="21" y="22" width="25" height="28">
<path fill-rule="evenodd" clip-rule="evenodd" d="M44.3493 43.5871C44.3692 43.5956 44.3793 43.6 44.3789 43.6C44.3699 43.608 44.3608 43.6163 44.3516 43.6246C44.3804 43.6375 44.3951 43.6444 44.3947 43.6449C44.3898 43.6494 44.3849 43.6538 44.38 43.6584C44.402 43.6685 44.4131 43.6739 44.4127 43.6742C44.4038 43.6822 44.3945 43.6905 44.385 43.6989C44.3939 43.703 44.401 43.7062 44.4065 43.7087C44.4151 43.7127 44.4193 43.7147 44.4191 43.7147C44.4119 43.7214 44.4043 43.7282 44.3966 43.7353C44.4295 43.7509 44.4464 43.7593 44.4459 43.7597C44.4392 43.7659 44.4321 43.7723 44.4247 43.7789C44.4526 43.7925 44.4668 43.7998 44.4663 43.8002L44.4619 43.8042L44.4594 43.8064L44.4535 43.8117C44.4715 43.8205 44.4806 43.825 44.4803 43.825C44.4708 43.8334 44.4603 43.8426 44.4491 43.8523C44.4801 43.868 44.496 43.8763 44.4955 43.8767L44.4917 43.8802L44.4886 43.8832C44.4858 43.8857 44.483 43.8883 44.4802 43.8909C44.5101 43.9064 44.5254 43.9146 44.525 43.915C44.5187 43.9207 44.5118 43.9269 44.5045 43.9334L44.515 43.9389C44.5183 43.9407 44.5211 43.9421 44.5232 43.9433C44.5273 43.9454 44.5292 43.9465 44.5291 43.9465L44.5038 43.9695C44.5327 43.9851 44.5475 43.9934 44.5472 43.9937L44.5288 44.0097C44.5546 44.0241 44.5678 44.0316 44.5674 44.032L44.5645 44.0346L44.5532 44.0452C44.5593 44.0485 44.5644 44.0514 44.5685 44.0537C44.5729 44.0562 44.5761 44.058 44.5783 44.0592C44.5806 44.0605 44.5816 44.0612 44.5815 44.0612L44.5543 44.0856C44.5824 44.1018 44.5968 44.1104 44.5965 44.1107L44.5786 44.1266C44.603 44.141 44.6154 44.1487 44.6151 44.149L44.5964 44.1653C44.6061 44.1712 44.6138 44.176 44.6195 44.1795C44.6272 44.1844 44.6311 44.1869 44.6309 44.1872L44.6131 44.2028C44.637 44.2175 44.6492 44.2252 44.649 44.2255L44.6237 44.2484C44.6509 44.2656 44.6648 44.2747 44.6645 44.275L44.6534 44.2847C44.6726 44.2972 44.6825 44.3039 44.6823 44.3042L44.6617 44.3222C44.6815 44.3354 44.6917 44.3422 44.6915 44.3424L44.6777 44.3546C44.7032 44.3716 44.7163 44.3806 44.7161 44.3807L44.7044 44.391C44.724 44.4047 44.734 44.4119 44.7338 44.4122C44.7286 44.4172 44.7207 44.4243 44.7108 44.4331C44.7353 44.4502 44.7479 44.4592 44.7478 44.4595L44.7251 44.4792C44.746 44.4942 44.7568 44.502 44.7566 44.5022L44.7415 44.5155C44.7693 44.5359 44.7837 44.5468 44.7835 44.5472L44.7746 44.5551C44.7824 44.561 44.7884 44.5655 44.7926 44.5687C44.7973 44.5723 44.7997 44.5742 44.7996 44.5742L44.7807 44.5914C44.7928 44.6007 44.8013 44.6072 44.806 44.611C44.8091 44.6134 44.8105 44.6146 44.8105 44.6147L44.7987 44.6249C44.8215 44.643 44.8332 44.6525 44.833 44.653L44.8177 44.6665C44.8249 44.6722 44.8308 44.6769 44.8355 44.6806C44.8409 44.685 44.8447 44.688 44.8467 44.6897C44.8479 44.6907 44.8485 44.6912 44.8485 44.6912C44.848 44.6915 44.845 44.6941 44.8398 44.6986C44.8575 44.7129 44.8666 44.7204 44.8665 44.7205L44.8459 44.7387C44.8705 44.7591 44.8831 44.7698 44.883 44.77L44.8721 44.7797C44.8941 44.7984 44.9055 44.8081 44.9055 44.8082L44.8926 44.8195C44.913 44.8372 44.9236 44.8464 44.9235 44.8465L44.9071 44.861L44.9341 44.8848L44.9199 44.8973C44.9401 44.9156 44.9505 44.9252 44.9504 44.9252L44.9385 44.9358C44.9512 44.9476 44.9599 44.9557 44.9645 44.9599C44.967 44.9623 44.9682 44.9635 44.9682 44.9635L44.9614 44.9696L44.9955 45.0017L44.9781 45.017L45.0019 45.04L44.9887 45.0516L45.018 45.0804L45.0048 45.0921L45.0334 45.121L44.7251 45.4C42.0995 47.8466 38.6094 49.15 35.0228 49.0234C31.4362 48.8968 28.0467 47.3506 25.6001 44.725C23.1535 42.0993 21.8501 38.6093 21.9767 35.0227C22.0939 31.701 23.4287 28.5485 25.711 26.1574C25.9592 25.8913 26.2222 25.6347 26.5001 25.3885L26.5086 25.3813L26.5187 25.3728C26.7453 25.1804 26.9778 24.9962 27.2159 24.8202L27.234 24.8067C27.3932 24.687 27.5546 24.5711 27.7182 24.459C30.1579 22.7741 33.0924 21.9195 36.0816 22.0485C37.2021 22.0969 38.3031 22.2823 39.3621 22.5947C40.627 22.9597 41.8505 23.5121 42.9884 24.2568C43.8117 24.7906 44.5893 25.4263 45.3037 26.167C45.3051 26.1688 45.3066 26.1709 45.308 26.1734L45.3105 26.176C45.3128 26.1788 45.3144 26.1831 45.3152 26.189C45.3207 26.1979 45.3265 26.2093 45.3316 26.224C45.467 26.4797 45.5312 27.8657 35.5788 35.5794L42.9041 42.9722C43.7983 43.3384 44.3655 43.5723 44.3626 43.5752C44.3582 43.5792 44.3538 43.5831 44.3493 43.5871Z" fill="white"/>
</mask>
<g mask="url(#mask0_939_331191)">
<g filter="url(#filter0_i_939_331191)">
<circle cx="35.5" cy="35.5" r="13.5" fill="url(#paint0_radial_939_331191)"/>
</g>
</g>
<path d="M39.4734 32.4691C37.6037 34.0149 35.1512 35.9499 31.9404 38.3416C34.4177 40.9111 37.0749 42.9901 39.4712 44.2389C41.8674 45.4876 43.7799 45.7441 44.6844 44.9274C45.5889 44.1106 45.4854 42.2274 44.4009 39.7794C43.3974 37.5001 41.6627 34.9374 39.4734 32.4691Z" fill="url(#paint1_linear_939_331191)"/>
<path d="M39.6667 32.3094L39.6105 32.3567L39.0772 32.7999C41.136 35.1264 42.846 37.6712 43.782 39.8042C44.8102 42.1487 45.0105 43.7709 44.3445 44.3762C43.6042 45.0512 41.7255 44.7542 39.5632 43.6224C37.2997 42.4389 34.7707 40.4364 32.424 37.9749L31.731 38.4947C36.681 43.6404 42.1147 46.5947 44.4682 45.5192C44.5361 45.4868 44.6022 45.4507 44.6662 45.4112L44.6932 45.3954C44.7829 45.3388 44.8673 45.274 44.9452 45.2019C45.027 45.1267 45.1023 45.0447 45.1702 44.9567C46.6867 42.9564 44.331 37.5609 39.6667 32.3094Z" fill="url(#paint2_linear_939_331191)"/>
</g>
</g>
<mask id="mask1_939_331191" style="mask-type:alpha" maskUnits="userSpaceOnUse" x="0" y="0" width="53" height="53">
<path d="M36 19C45.3888 19 53 26.6112 53 36C53 45.3888 45.3888 53 36 53C26.6112 53 19 45.3888 19 36H26C31.5228 36 36 31.5228 36 26V19ZM26 0C31.5228 2.57703e-07 36 4.47715 36 10V19C26.6112 19 19 26.6112 19 36H10C4.47715 36 2.57711e-07 31.5228 0 26V10C2.57711e-07 4.47715 4.47715 2.57703e-07 10 0H26Z" fill="#D9D9D9"/>
</mask>
<g mask="url(#mask1_939_331191)">
<g clip-path="url(#clip2_939_331191)">
<mask id="mask2_939_331191" style="mask-type:alpha" maskUnits="userSpaceOnUse" x="0" y="0" width="36" height="36">
<path d="M0 17.28C0 11.2314 0 8.20715 1.17713 5.8969C2.21256 3.86475 3.86475 2.21256 5.8969 1.17713C8.20715 0 11.2314 0 17.28 0H18.72C24.7686 0 27.7929 0 30.1031 1.17713C32.1352 2.21256 33.7874 3.86475 34.8229 5.8969C36 8.20715 36 11.2314 36 17.28V18.72C36 24.7686 36 27.7929 34.8229 30.1031C33.7874 32.1352 32.1352 33.7874 30.1031 34.8229C27.7929 36 24.7686 36 18.72 36H17.28C11.2314 36 8.20715 36 5.8969 34.8229C3.86475 33.7874 2.21256 32.1352 1.17713 30.1031C0 27.7929 0 24.7686 0 18.72V17.28Z" fill="white"/>
</mask>
<g mask="url(#mask2_939_331191)">
<rect width="36" height="36" fill="#FF0000"/>
<path d="M7.6155 13.663H5.70694L5.68247 19.2541L4.65479 22.3494H6.58782L7.56657 19.4009L11.3103 13.663H9.1448L7.90913 15.9386C7.67668 16.3545 7.49316 16.7338 7.43199 16.8806C7.45646 16.7216 7.49316 16.2322 7.51763 15.8285L7.6155 13.663Z" fill="white"/>
<path d="M7.35973 22.3494H9.32946L10.0635 20.7834H11.6173L11.3481 22.3494H13.2078L14.4679 13.663H11.862L7.35973 22.3494ZM11.9109 19.144H10.8465L12.1556 16.3545C12.3636 15.9263 12.5226 15.5348 12.5838 15.388C12.5593 15.5471 12.4615 16.0242 12.3881 16.4279L11.9109 19.144Z" fill="white"/>
<path d="M18.3801 13.663H16.2758L13.3885 22.3494H15.1625L16.6551 17.8104C16.8141 17.3578 16.9242 16.954 16.9732 16.8072C16.9609 16.9663 16.912 17.4556 16.8875 17.8594L16.6184 22.3494H18.6738L21.5611 13.663H19.7871L18.3679 17.9817C18.2088 18.4344 18.0987 18.8381 18.0498 18.9849C18.062 18.8259 18.0987 18.3365 18.1232 17.9328L18.3801 13.663Z" fill="white"/>
<path d="M23.6982 19.0706L23.6615 19.1807C23.3923 20.0004 22.9519 20.918 22.4136 20.918C21.8018 20.918 22.0343 19.4621 22.5481 17.8961C23.27 15.6939 23.7104 15.0699 24.212 15.0699C24.4934 15.0699 24.6769 15.3513 24.7381 16.3423L26.4631 15.7673C26.3897 14.5072 25.7902 13.4917 24.3955 13.4917C22.7928 13.4917 21.5204 14.8497 20.6273 17.578C19.8076 20.086 19.881 22.4106 21.6061 22.4106C22.2056 22.4106 22.6215 22.1781 23.0497 21.652L22.9274 22.3494H24.3099L25.9493 17.4312H23.3067L22.7684 19.0706H23.6982Z" fill="white"/>
<path d="M27.8084 22.5084C29.3133 22.5084 30.6346 21.1627 31.5155 18.4344C32.3352 15.9263 32.3229 13.5039 29.9617 13.5039C28.4569 13.5039 27.1355 14.8497 26.2547 17.578C25.435 20.086 25.4472 22.5084 27.8084 22.5084ZM28.0042 20.9547C27.2701 20.9547 27.6983 19.3397 28.1755 17.8961C28.8973 15.6572 29.35 15.0577 29.7659 15.0577C30.4878 15.0577 30.0718 16.6482 29.5947 18.1163C28.8728 20.3552 28.4202 20.9547 28.0042 20.9547Z" fill="white"/>
</g>
</g>
</g>
<defs>
<filter id="filter0_i_939_331191" x="22" y="18.6025" width="27" height="30.3975" filterUnits="userSpaceOnUse" color-interpolation-filters="sRGB">
<feFlood flood-opacity="0" result="BackgroundImageFix"/>
<feBlend mode="normal" in="SourceGraphic" in2="BackgroundImageFix" result="shape"/>
<feColorMatrix in="SourceAlpha" type="matrix" values="0 0 0 0 0 0 0 0 0 0 0 0 0 0 0 0 0 0 127 0" result="hardAlpha"/>
<feOffset dy="-5.43603"/>
<feGaussianBlur stdDeviation="1.69876"/>
<feComposite in2="hardAlpha" operator="arithmetic" k2="-1" k3="1"/>
<feColorMatrix type="matrix" values="0 0 0 0 0.0235294 0 0 0 0 0.701961 0 0 0 0 0.301961 0 0 0 0.6 0"/>
<feBlend mode="normal" in2="shape" result="effect1_innerShadow_939_331191"/>
</filter>
<radialGradient id="paint0_radial_939_331191" cx="0" cy="0" r="1" gradientUnits="userSpaceOnUse" gradientTransform="translate(40.225 24.025) rotate(-0.276696) scale(45.2313 41.1447)">
<stop stop-color="#48F56D"/>
<stop offset="0.09" stop-color="#43EA68"/>
<stop offset="0.25" stop-color="#37CB5A"/>
<stop offset="0.47" stop-color="#239A44"/>
<stop offset="0.73" stop-color="#085625"/>
<stop offset="0.8" stop-color="#00421C"/>
</radialGradient>
<linearGradient id="paint1_linear_939_331191" x1="40.5467" y1="54.4336" x2="35.5584" y2="18.6991" gradientUnits="userSpaceOnUse">
<stop offset="0.1" stop-color="#FF8475"/>
<stop offset="0.37" stop-color="#E84E43"/>
<stop offset="0.6" stop-color="#D6261F"/>
<stop offset="0.79" stop-color="#CC0E08"/>
<stop offset="0.9" stop-color="#C80500"/>
</linearGradient>
<linearGradient id="paint2_linear_939_331191" x1="44.9497" y1="45.175" x2="36.0622" y2="34.825" gradientUnits="userSpaceOnUse">
<stop stop-color="#9EF0BF"/>
<stop offset="1" stop-color="#55D48C"/>
</linearGradient>
<clipPath id="clip0_939_331191">
<rect width="27" height="27" fill="white" transform="translate(22 22)"/>
</clipPath>
<clipPath id="clip1_939_331191">
<rect x="22" y="22" width="27" height="27" rx="5.43603" fill="white"/>
</clipPath>
<clipPath id="clip2_939_331191">
<rect width="36" height="36" fill="white"/>
</clipPath>
</defs>
</svg>
