<svg width="29" height="14" viewBox="0 0 29 14" fill="none" xmlns="http://www.w3.org/2000/svg">
<rect width="14" height="14" rx="6.99999" fill="#FF0000"/>
<path d="M7.08316 2.65674H5.17459L5.15012 8.24785L4.12244 11.3431H6.05547L7.03422 8.39466L10.7779 2.65674H8.61245L7.37678 4.93233C7.14433 5.3483 6.96081 5.72757 6.89964 5.87438C6.92411 5.71533 6.96081 5.22596 6.98528 4.82222L7.08316 2.65674Z" fill="white"/>
<g clip-path="url(#clip0_2492_35330)">
<path d="M22.0219 7.03357L26.9395 12.0693L26.8392 12.1607L26.7969 12.2008C25.4199 13.4291 23.6156 14.0674 21.7726 13.9784C19.9295 13.8893 18.1952 13.08 16.9431 11.7247C15.691 10.3694 15.0212 8.5765 15.078 6.7322C15.1349 4.8879 15.9138 3.1397 17.247 1.86408C18.6178 0.609666 20.4275 -0.0541902 22.2843 0.0163247C24.141 0.0868395 25.8953 0.886047 27.1669 2.24081L22.0219 7.03357Z" fill="#01B94F"/>
<path d="M17.2515 1.86176C18.622 0.608442 20.4311 -0.0545414 22.287 0.0163881C24.1428 0.0873175 25.896 0.88645 27.1669 2.24072C27.1669 2.24072 23.0763 6.07047 22.9939 6.13735C22.9939 6.13735 22.0777 7.00004 22.0843 7.01342C22.091 7.02679 26.9306 12.0492 26.9306 12.0492L26.8325 12.1428L26.7902 12.1829C23.9011 14.7242 19.474 14.6083 16.8591 11.7817C15.6034 10.4105 14.9401 8.5988 15.0136 6.74096C15.087 4.88311 15.8914 3.12948 17.2515 1.86176V1.86176Z" fill="url(#paint0_radial_2492_35330)"/>
<path d="M17.2537 1.85741C18.6253 0.605751 20.4345 -0.0557258 22.29 0.016025C24.1455 0.0877758 25.8982 0.886987 27.1691 2.24083C27.1691 2.24083 23.1878 5.98587 23.025 6.1174C23.025 6.1174 22.1334 6.96895 22.149 6.9957C22.1824 7.07595 26.9239 12.027 26.9239 12.027L26.8258 12.1206L26.7835 12.1607C23.9011 14.6975 19.4717 14.5727 16.8658 11.755C15.6119 10.3876 14.9492 8.58017 15.0218 6.72635C15.0945 4.87253 15.8967 3.1225 17.2537 1.85741V1.85741Z" fill="url(#paint1_radial_2492_35330)"/>
<path d="M17.2582 1.85517C18.6299 0.605152 20.4383 -0.0550905 22.2927 0.0170679C24.1471 0.0892263 25.8987 0.887993 27.1691 2.24082C27.1691 2.24082 23.3015 5.89892 23.0518 6.09732C23.0518 6.09732 22.1914 6.9355 22.207 6.97562C22.2582 7.096 26.915 12.0069 26.915 12.0069L26.8147 12.1005L26.7724 12.1384C23.8989 14.6686 19.4718 14.5393 16.8703 11.7283C15.6185 10.3647 14.9567 8.56139 15.0294 6.71177C15.102 4.86215 15.9032 3.11632 17.2582 1.85517V1.85517Z" fill="url(#paint2_radial_2492_35330)"/>
<path d="M17.2605 1.85305C18.6323 0.603992 20.4404 -0.0554386 22.2943 0.0171322C24.1482 0.0897031 25.8992 0.888453 27.1692 2.24093C27.1692 2.24093 23.413 5.80764 23.0809 6.07737C23.0809 6.07737 22.2472 6.9044 22.2695 6.9579C22.3363 7.1184 26.9062 11.987 26.9062 11.987L26.8081 12.0784C26.8081 12.0784 26.7657 12.1162 26.7657 12.1185C23.899 14.6397 19.4718 14.5015 16.877 11.7016C15.6272 10.3422 14.9661 8.5435 15.0379 6.69827C15.1097 4.85304 15.9087 3.11118 17.2605 1.85305V1.85305Z" fill="url(#paint3_radial_2492_35330)"/>
<path d="M17.2648 1.84856C18.6371 0.601429 20.4445 -0.0563774 22.2973 0.0170181C24.1501 0.0904136 25.8999 0.88913 27.1691 2.2409C27.1691 2.2409 23.5266 5.72735 23.1098 6.05727C23.1098 6.05727 22.3028 6.87093 22.3296 6.9378C22.4143 7.13843 26.8994 11.9646 26.8972 11.9669L26.7991 12.0583L26.7567 12.0984C23.8967 14.6084 19.4717 14.468 16.8836 11.6748C15.636 10.3189 14.9757 8.52427 15.0472 6.68306C15.1186 4.84185 15.9159 3.10376 17.2648 1.84856V1.84856Z" fill="url(#paint4_radial_2492_35330)"/>
<path d="M17.2671 1.8462C18.6395 0.600028 20.4466 -0.0569683 22.2989 0.0168395C24.1512 0.0906473 25.9003 0.889348 27.1692 2.24077C27.1692 2.24077 23.6381 5.64251 23.1388 6.03039C23.1388 6.03039 22.3586 6.83067 22.392 6.91092C22.4923 7.15167 26.8905 11.9355 26.8905 11.9355L26.7924 12.0492L26.7501 12.0871C23.8945 14.5793 19.4718 14.4344 16.8881 11.6479C15.6428 10.2959 14.9835 8.50569 15.0545 6.66886C15.1255 4.83203 15.9211 3.09807 17.2671 1.8462V1.8462Z" fill="url(#paint5_radial_2492_35330)"/>
<path d="M17.2715 1.84408C18.6441 0.598871 20.4509 -0.0573144 22.3026 0.0169055C24.1544 0.0911255 25.9028 0.88981 27.1713 2.24088C27.1713 2.24088 23.7518 5.55791 23.1699 6.0305C23.1699 6.0305 22.4142 6.8174 22.4521 6.91103C22.5792 7.18076 26.8838 11.9245 26.8815 11.9245L26.7835 12.0159L26.7411 12.056C23.8944 14.5505 19.4717 14.3989 16.8948 11.6213C15.6512 10.2734 14.9925 8.48748 15.0631 6.65486C15.1337 4.82223 15.9278 3.09231 17.2715 1.84408V1.84408Z" fill="url(#paint6_radial_2492_35330)"/>
<path d="M17.2737 1.83972C18.6467 0.595751 20.4534 -0.0592338 22.3046 0.0158155C24.1558 0.0908648 25.9035 0.889944 27.1713 2.24097C27.1713 2.24097 23.8632 5.47107 23.1989 5.99939C23.1989 5.99939 22.4699 6.77514 22.5145 6.89106C22.6483 7.21206 26.8748 11.9134 26.8726 11.9134C26.8703 11.9134 26.7812 12.0004 26.7745 12.0048L26.7321 12.0427C23.8922 14.5216 19.4694 14.3655 16.8992 11.6036C15.6544 10.259 14.9946 8.47507 15.0648 6.6441C15.1351 4.81313 15.9296 3.08501 17.2737 1.83972V1.83972Z" fill="url(#paint7_radial_2492_35330)"/>
<path d="M17.2782 1.83749C18.6513 0.59516 20.4572 -0.0585944 22.3073 0.0168619C24.1574 0.0923183 25.904 0.890956 27.1714 2.24097C27.1714 2.24097 23.977 5.38636 23.2279 5.97932C23.2279 5.97932 22.5258 6.74171 22.577 6.871C22.7264 7.23213 26.866 11.8911 26.866 11.8934L26.7679 11.9848L26.7255 12.0227C23.8922 14.5015 19.4695 14.3388 16.9171 11.5768C15.6738 10.2373 15.0134 8.45876 15.0811 6.63238C15.1488 4.806 15.9391 3.08128 17.2782 1.83749V1.83749Z" fill="url(#paint8_radial_2492_35330)"/>
<path d="M17.2804 1.83513C18.6537 0.593762 20.4592 -0.0591829 22.3088 0.0166855C24.1584 0.0925538 25.9044 0.891177 27.1713 2.24085C27.1713 2.24085 24.0884 5.29929 23.248 5.95913C23.248 5.95913 22.5792 6.71037 22.6282 6.85081C22.8021 7.24537 26.8592 11.862 26.857 11.8643L26.7589 11.9534C26.7589 11.9534 26.721 11.9891 26.7166 11.9935C23.89 14.4635 19.4695 14.2941 16.9081 11.5477C16.2948 10.8855 15.8179 10.1091 15.5047 9.26258C15.1915 8.41611 15.0481 7.51622 15.0826 6.61432C15.1172 5.71241 15.3291 4.82614 15.7062 4.00613C16.0833 3.18611 16.6182 2.44841 17.2804 1.83513V1.83513Z" fill="url(#paint9_radial_2492_35330)"/>
<path d="M17.285 1.83066C18.6585 0.591213 20.4634 -0.0601143 22.312 0.0165779C24.1605 0.0932702 25.9052 0.891864 27.1714 2.24084C27.1714 2.24084 24.2021 5.21457 23.2859 5.93906C23.2859 5.93906 22.6372 6.67915 22.6997 6.83074C22.8824 7.27657 26.8504 11.8486 26.8504 11.8509L26.7523 11.94L26.71 11.9779C23.8878 14.4345 19.4696 14.2606 16.9171 11.5165C15.6817 10.1832 15.0264 8.41379 15.0954 6.59742C15.1644 4.78104 15.952 3.06644 17.285 1.83066V1.83066Z" fill="url(#paint10_radial_2492_35330)"/>
<path d="M17.2871 1.82851C18.6613 0.589879 20.4662 -0.0607002 22.3146 0.0164019C24.1629 0.093504 25.9074 0.892143 27.1736 2.24091C27.1736 2.24091 24.3136 5.13886 23.3149 5.9213C23.3149 5.9213 22.6952 6.64579 22.7598 6.81298C22.9604 7.2878 26.8437 11.8264 26.8415 11.8264L26.7434 11.9178L26.701 11.9557C23.8878 14.4078 19.4695 14.2295 16.9238 11.4943C16.3124 10.8361 15.8368 10.0638 15.5241 9.22157C15.2114 8.37937 15.0679 7.48379 15.1016 6.58606C15.1354 5.68833 15.3458 4.80606 15.7208 3.98972C16.0958 3.17337 16.6281 2.43897 17.2871 1.82851V1.82851Z" fill="url(#paint11_radial_2492_35330)"/>
<path d="M17.2916 1.82604C18.6658 0.58905 20.4699 -0.0603023 22.3172 0.0172064C24.1645 0.0947152 25.9079 0.892915 27.1736 2.24067C27.1736 2.24067 24.4272 5.04277 23.3439 5.901C23.3439 5.901 22.7509 6.61434 22.8222 6.79268C23.0451 7.31431 26.8348 11.8061 26.8348 11.8084L26.7367 11.8998C26.7367 11.8998 26.6988 11.9332 26.6966 11.9376C23.8878 14.3898 19.4718 14.1958 16.9305 11.4695C14.3892 8.74322 14.5163 4.3428 17.2916 1.82604Z" fill="url(#paint12_radial_2492_35330)"/>
<path d="M17.2938 1.82169C18.6684 0.58594 20.4724 -0.0622145 22.3192 0.0161229C24.1659 0.0944602 25.9085 0.893057 27.1736 2.24078C27.1736 2.24078 24.5387 4.9537 23.3839 5.87659C23.3839 5.87659 22.8155 6.57655 22.8935 6.76826C23.1276 7.33002 26.8347 11.7795 26.8347 11.7817L26.7366 11.8709L26.6943 11.9088C23.8833 14.3453 19.4583 14.1558 16.9349 11.4362C14.4115 8.71657 14.5252 4.33176 17.2938 1.82169Z" fill="url(#paint13_radial_2492_35330)"/>
<path d="M17.2983 1.81948C18.6729 0.585359 20.4761 -0.0615709 22.3218 0.0171729C24.1675 0.0959167 25.909 0.894077 27.1736 2.2408C27.1736 2.2408 24.6524 4.87124 23.404 5.861C23.404 5.861 22.8623 6.54982 22.9448 6.75267C23.1967 7.35232 26.8147 11.7594 26.8147 11.7617L26.7166 11.8508L26.6742 11.8887C23.8833 14.3163 19.4584 14.1201 16.9394 11.4094C14.4204 8.69875 14.5341 4.32063 17.2983 1.81948Z" fill="url(#paint14_radial_2492_35330)"/>
<path d="M17.3005 1.81737C18.6753 0.584212 20.4782 -0.0619114 22.3233 0.017244C24.1685 0.0963994 25.9094 0.894546 27.1736 2.24092C27.1736 2.24092 24.7638 4.78665 23.433 5.84106C23.433 5.84106 22.918 6.50981 23.0072 6.73273C23.2747 7.36805 26.8147 11.7395 26.8147 11.7417L26.7188 11.8309L26.6764 11.8688C23.881 14.2785 19.4583 14.0868 16.946 11.3806C14.4337 8.67436 14.5407 4.31183 17.3005 1.81737Z" fill="url(#paint15_radial_2492_35330)"/>
<path d="M17.305 1.81273C18.6808 0.581881 20.4833 -0.0623363 22.3275 0.0176327C24.1718 0.0976016 25.9118 0.89542 27.1758 2.24073C27.1758 2.24073 24.8776 4.69284 23.4709 5.82081C23.4709 5.82081 22.9827 6.48957 23.0764 6.71249C23.3528 7.39462 26.8147 11.717 26.8013 11.7193L26.7033 11.8084C26.6902 11.8222 26.676 11.8349 26.6609 11.8463C23.8811 14.2583 19.4584 14.0554 16.9528 11.3559C14.4472 8.65634 14.5542 4.30051 17.305 1.81273Z" fill="url(#paint16_radial_2492_35330)"/>
<path d="M17.3073 1.81065C18.6847 0.581654 20.4882 -0.059746 22.3324 0.0235669C24.1765 0.10688 25.9149 0.908295 27.1759 2.25649C27.1759 2.25649 24.989 4.61497 23.491 5.80759C23.491 5.80759 23.0296 6.45851 23.1299 6.69927C23.4308 7.42375 26.7947 11.706 26.7925 11.7083C26.7902 11.7105 26.71 11.7863 26.6944 11.7974L26.6542 11.8353C23.8789 14.2295 19.4584 14.0155 16.9573 11.3293C14.4561 8.64312 14.5542 4.28951 17.3073 1.81065Z" fill="url(#paint17_radial_2492_35330)"/>
<path d="M17.3116 1.80839C18.6886 0.580207 20.4913 -0.060715 22.3345 0.0225946C24.1777 0.105904 25.9153 0.906836 27.1758 2.25423C27.1758 2.25423 25.1026 4.53469 23.5199 5.78972C23.5199 5.78972 23.0852 6.42727 23.19 6.6814C23.5088 7.44601 26.7879 11.6859 26.7835 11.6882L26.6876 11.7773L26.6452 11.8152C23.8766 14.2005 19.4583 13.982 16.9639 11.3025C14.4694 8.62302 14.5653 4.27833 17.3116 1.80839Z" fill="url(#paint18_radial_2492_35330)"/>
<path d="M17.3139 1.79495C18.6909 0.56798 20.493 -0.0721708 22.3355 0.0111255C24.178 0.0944218 25.915 0.894568 27.1758 2.24079C27.1758 2.24079 25.2141 4.43654 23.5511 5.75622C23.5511 5.75622 23.1409 6.3804 23.2524 6.6479C23.5868 7.45264 26.779 11.6524 26.7768 11.6547L26.6787 11.7438L26.6363 11.7795C23.8766 14.1714 19.4583 13.9463 16.9683 11.2779C14.4783 8.60959 14.5742 4.26713 17.3139 1.79495Z" fill="url(#paint19_radial_2492_35330)"/>
<path d="M17.3183 1.79489C18.6949 0.56873 20.4961 -0.0709426 22.3377 0.0123504C24.1794 0.0956434 25.9155 0.895307 27.1758 2.24073C26.0675 3.49735 24.8655 4.66806 23.5801 5.74279C23.5801 5.74279 23.1967 6.35581 23.3148 6.63446C23.6648 7.47932 26.7701 11.6345 26.7678 11.639L26.672 11.7259L26.6296 11.7638C23.8744 14.1424 19.4583 13.9128 16.975 11.2511C14.4917 8.58946 14.5809 4.247 17.3183 1.79489Z" fill="url(#paint20_radial_2492_35330)"/>
<path d="M17.3205 1.79498C18.6974 0.569362 20.4985 -0.069956 22.3399 0.0133292C24.1814 0.0966145 25.9174 0.895914 27.178 2.24082C26.0853 3.49401 24.8924 4.65628 23.6113 5.71613C23.6113 5.71613 23.2569 6.31578 23.3884 6.6078C23.7562 7.49948 26.7768 11.6079 26.7723 11.6101L26.6764 11.6993L26.6341 11.7372C23.8743 14.1113 19.4583 13.8772 16.9795 11.2245C14.5006 8.57172 14.5898 4.24709 17.3205 1.79498Z" fill="url(#paint21_radial_2492_35330)"/>
<path d="M17.325 1.79488C18.7018 0.571135 20.5019 -0.0669989 22.3421 0.0162677C24.1823 0.0995343 25.9173 0.897628 27.178 2.24071C26.1024 3.4948 24.9178 4.65107 23.6381 5.69596C23.6381 5.69596 23.3104 6.28447 23.4374 6.58764C23.8209 7.52167 26.7545 11.6033 26.7522 11.6033C26.75 11.6033 26.6742 11.6769 26.6542 11.6925L26.614 11.7282C23.8721 14.0822 19.4583 13.8325 16.9862 11.1976C14.514 8.5627 14.5965 4.24699 17.325 1.79488Z" fill="url(#paint22_radial_2492_35330)"/>
<path d="M17.3272 1.79501C18.7039 0.57195 20.5035 -0.0657694 22.3432 0.0174917C24.1828 0.100753 25.9174 0.898424 27.178 2.24085C26.1198 3.49722 24.9442 4.64973 23.667 5.68272C23.667 5.68272 23.3661 6.25785 23.4976 6.5744C23.9011 7.53964 26.7478 11.5722 26.7433 11.5745L26.6475 11.6614L26.6051 11.6993C23.8699 14.0556 19.4583 13.8081 16.9928 11.171C14.5274 8.53386 14.6054 4.22483 17.3272 1.79501Z" fill="url(#paint23_radial_2492_35330)"/>
<path d="M17.3295 1.79491C18.7061 0.57252 20.5052 -0.064784 22.3443 0.0184715C24.1834 0.101727 25.9175 0.898977 27.1781 2.24075C26.138 3.49932 24.9703 4.64678 23.6938 5.66479C23.6938 5.66479 23.4196 6.22654 23.5579 6.55646C23.9769 7.56183 26.7367 11.5498 26.7344 11.5543L26.6364 11.6412L26.594 11.6791C23.8699 14.0242 19.4584 13.7723 17.0063 11.1441C14.5542 8.51592 14.6143 4.21358 17.3295 1.79491Z" fill="url(#paint24_radial_2492_35330)"/>
<path d="M17.3339 1.79495C18.7103 0.573906 20.5084 -0.0625692 22.3464 0.0206753C24.1845 0.10392 25.9177 0.900327 27.178 2.24079C26.1574 3.49979 25.0001 4.64145 23.7272 5.64476C23.7272 5.64476 23.4776 6.19537 23.6225 6.53643C24.0683 7.58192 26.7433 11.5298 26.7277 11.5343L26.6319 11.6212L26.5895 11.6569C23.8677 13.9953 19.4583 13.7367 17.0062 11.1174C14.5541 8.49812 14.621 4.20247 17.3339 1.79495Z" fill="url(#paint25_radial_2492_35330)"/>
<path d="M17.3361 1.79495C18.7126 0.575113 20.5101 -0.0605975 22.3475 0.022634C24.1848 0.105865 25.9174 0.901493 27.178 2.24079C26.1779 3.50252 25.029 4.63873 23.7562 5.6247C23.7562 5.6247 23.5333 6.16194 23.6826 6.51638C24.1285 7.60199 26.7232 11.5075 26.7188 11.5098C26.7143 11.512 26.6452 11.5789 26.6229 11.5967L26.5806 11.6346C23.8677 13.9663 19.4583 13.7033 17.0062 11.0907C14.5541 8.47807 14.6299 4.19133 17.3361 1.79495Z" fill="url(#paint26_radial_2492_35330)"/>
<path d="M17.3406 1.7817C18.7186 0.564217 20.5166 -0.0687494 22.3535 0.0169748C24.1903 0.102699 25.9215 0.900375 27.1802 2.24091C27.1802 2.24091 26.1146 3.75676 23.7851 5.60476C23.7851 5.60476 23.589 6.13085 23.745 6.49643C24.2131 7.61103 26.7143 11.4876 26.7121 11.4898L26.614 11.5768L26.5739 11.6147C23.8654 13.9375 19.4583 13.6677 17.0062 11.064C14.5541 8.46035 14.6366 4.18031 17.3406 1.7817Z" fill="url(#paint27_radial_2492_35330)"/>
<path d="M17.3428 1.77724C18.7216 0.561527 20.5193 -0.069901 22.3555 0.0166425C24.1916 0.103186 25.922 0.900907 27.1803 2.24091C27.1803 2.24091 26.2284 3.66314 23.8142 5.5847C23.7242 5.87512 23.7242 6.18596 23.8142 6.47638C24.3001 7.64224 26.7121 11.4631 26.7121 11.4675L26.6163 11.5545L26.5739 11.5901C23.8632 13.9085 19.4583 13.6343 17.0218 11.0395C14.5853 8.44475 14.6455 4.17139 17.3428 1.77724Z" fill="url(#paint28_radial_2492_35330)"/>
<path d="M17.3473 1.77509C18.7256 0.559937 20.5228 -0.0709765 22.3582 0.0159878C24.1936 0.102952 25.9231 0.900964 27.1803 2.24099C27.1803 2.24099 26.3399 3.57851 23.8365 5.5558C23.7577 5.84908 23.7663 6.15897 23.861 6.44747C24.3626 7.66907 26.6988 11.4498 26.6943 11.4542L26.5985 11.5412L26.5583 11.5768C23.8632 13.8796 19.4584 13.6099 17.0263 11.0129C14.5943 8.41585 14.6545 4.16033 17.3473 1.77509Z" fill="url(#paint29_radial_2492_35330)"/>
<path d="M17.3496 1.77276C18.728 0.558561 20.5249 -0.0715517 22.3598 0.0158232C24.1946 0.103198 25.9235 0.901201 27.1803 2.24089C27.1803 2.24089 26.4536 3.50038 23.8722 5.54678C23.8101 5.8436 23.8294 6.15168 23.9279 6.43845C24.4473 7.68457 26.6921 11.4229 26.6877 11.4274L26.5918 11.5121L26.5495 11.55C23.8611 13.8505 19.4584 13.5629 17.0331 10.986C14.5698 8.37339 14.6612 4.14908 17.3496 1.77276Z" fill="url(#paint30_radial_2492_35330)"/>
<path d="M17.354 1.76822C18.733 0.55645 20.5291 -0.0717135 22.3627 0.0164744C24.1964 0.104662 25.9239 0.902292 27.1802 2.24081C27.1802 2.24081 26.565 3.40667 23.9011 5.51771C23.8551 5.8177 23.8858 6.12444 23.9903 6.40939C24.5253 7.69563 26.6831 11.3939 26.6787 11.3961L26.5828 11.483L26.5405 11.5187C23.8654 13.8036 19.4628 13.525 17.0374 10.9436C14.6121 8.36216 14.67 4.13785 17.354 1.76822Z" fill="url(#paint31_radial_2492_35330)"/>
<path d="M17.3563 1.7661C18.7358 0.555141 20.532 -0.0722861 22.3655 0.01631C24.1989 0.104906 25.9262 0.90259 27.1826 2.24091C27.1826 2.24091 26.6788 3.31984 23.9324 5.49776C23.9023 5.80031 23.9436 6.10569 24.0528 6.38944C24.6034 7.73364 26.6743 11.3806 26.6699 11.3917L26.574 11.4787L26.5339 11.5143C23.8588 13.7903 19.4584 13.4939 17.0442 10.9348C14.5921 8.33552 14.6791 4.12681 17.3563 1.7661Z" fill="url(#paint32_radial_2492_35330)"/>
<path d="M17.3607 1.76381C18.74 0.553948 20.5355 -0.0726163 22.3681 0.0163925C24.2007 0.105401 25.927 0.903018 27.1825 2.24086C27.1825 2.24086 26.7902 3.244 23.9614 5.48656C23.9487 5.79113 24.0004 6.09495 24.1129 6.37824C24.6814 7.75365 26.6676 11.3672 26.6631 11.3805L26.5673 11.4652L26.5249 11.5009C23.8566 13.7613 19.4584 13.4604 17.0486 10.9057C14.6032 8.3154 14.6857 4.11561 17.3607 1.76381Z" fill="url(#paint33_radial_2492_35330)"/>
<path d="M17.363 1.75937C18.743 0.55127 20.5382 -0.0737602 22.3701 0.0160669C24.202 0.105894 25.9274 0.903558 27.1826 2.24088C27.1826 2.24088 26.9039 3.15707 23.9904 5.46651C23.9952 5.77636 24.0579 6.08257 24.1754 6.36933C24.7617 7.77595 26.6587 11.3471 26.6543 11.3516L26.5584 11.4363L26.5183 11.4719C23.8566 13.7323 19.4584 13.4247 17.0554 10.879C14.6144 8.29758 14.6947 4.10448 17.363 1.75937Z" fill="url(#paint34_radial_2492_35330)"/>
<path d="M17.3674 1.75706C18.7481 0.553704 20.5417 -0.067337 22.371 0.0245409C24.2002 0.116419 25.9226 0.914056 27.1758 2.24971C27.1758 2.24971 27.0086 3.07228 24.0126 5.44636C24.0385 5.75724 24.1137 6.062 24.2355 6.34919C24.8396 7.79816 26.652 11.327 26.6475 11.3314L26.5516 11.4161C26.5365 11.4268 26.5224 11.4387 26.5093 11.4518C23.8543 13.7033 19.4584 13.3867 17.062 10.8521C14.6255 8.27743 14.7013 4.09548 17.3674 1.75706Z" fill="url(#paint35_radial_2492_35330)"/>
<path d="M17.3696 1.75497C18.7504 0.551364 20.5442 -0.0696367 22.3737 0.0226656C24.2031 0.114968 25.9254 0.913374 27.178 2.24985C27.178 2.24985 27.1245 2.98771 24.0438 5.42644C24.0875 5.73765 24.1714 6.04187 24.2934 6.3315C24.9176 7.81391 26.643 11.3048 26.6385 11.3093L26.5427 11.394C26.5293 11.394 26.5137 11.4207 26.5003 11.4297C23.852 13.6744 19.4583 13.3557 17.0664 10.8255C14.6366 8.25975 14.7101 4.08447 17.3696 1.75497Z" fill="url(#paint36_radial_2492_35330)"/>
<path d="M17.374 1.75051C18.7558 0.548519 20.5498 -0.0710162 22.3789 0.0221014C24.208 0.115219 25.9298 0.913739 27.1824 2.24984C27.1824 2.24984 27.2404 2.90968 24.0772 5.40861C24.142 5.71831 24.2375 6.02075 24.3625 6.31143C24.9978 7.84065 26.6385 11.2847 26.6318 11.2892C26.6251 11.2937 26.5672 11.3494 26.536 11.3739L26.4958 11.4096C23.8543 13.6499 19.4583 13.32 17.0731 10.7988C14.6455 8.23968 14.719 4.07332 17.374 1.75051Z" fill="url(#paint37_radial_2492_35330)"/>
<path d="M17.3763 1.74815C18.7585 0.546191 20.5529 -0.0729165 22.3822 0.0210417C24.2114 0.115 25.933 0.914701 27.1847 2.25194C27.1847 2.25194 27.3541 2.81593 24.1084 5.38842C24.1918 5.69684 24.296 5.99923 24.4205 6.29347C25.0737 7.8539 26.6274 11.2646 26.623 11.269L26.5271 11.3537L26.4848 11.3894C23.8521 13.6097 19.4584 13.2842 17.0776 10.7741C14.6567 8.21949 14.7258 4.06205 17.3763 1.74815Z" fill="url(#paint38_radial_2492_35330)"/>
<path d="M17.3808 1.74593C18.7633 0.544249 20.5579 -0.0744707 22.3872 0.0199035C24.2164 0.114278 25.9378 0.914391 27.1893 2.25195C27.1893 2.25195 27.4657 2.729 24.1397 5.36167C24.1397 5.36167 24.2623 5.73617 24.4853 6.26672C25.154 7.87619 26.6208 11.2378 26.6164 11.2423L26.5205 11.327L26.4804 11.3604C23.8499 13.5874 19.4584 13.2508 17.0844 10.7474C14.6679 8.19943 14.7348 4.05091 17.3808 1.74593Z" fill="url(#paint39_radial_2492_35330)"/>
<path d="M26.6052 11.2289C24.0015 13.5696 19.5008 13.2597 17.0888 10.7117C14.6768 8.16378 14.7415 4.02417 17.383 1.73257C18.7663 0.531978 20.5611 -0.0856231 22.3902 0.00957459C24.2193 0.104772 25.9403 0.905355 27.1915 2.24305C27.1915 2.24305 27.586 2.63539 24.1732 5.33939C24.1665 5.34831 26.6141 11.2222 26.6052 11.2289Z" fill="url(#paint40_radial_2492_35330)"/>
<path d="M24.0683 5.42358C23.0005 6.29966 21.6875 7.33177 20.1605 8.48872C21.2949 9.71545 22.6142 10.7572 24.0705 11.5761C25.3211 12.2449 26.2997 12.3697 26.779 11.9462C27.2583 11.5226 27.2003 10.5463 26.643 9.27117C25.9832 7.86644 25.1152 6.56931 24.0683 5.42358V5.42358Z" fill="url(#paint41_linear_2492_35330)"/>
<path d="M24.1642 5.33667L23.6292 5.78251C24.6087 6.85935 25.4231 8.07562 26.0456 9.39157C26.5917 10.6488 26.5784 11.2797 26.4023 11.438C26.2262 11.5962 25.466 11.6364 24.2511 10.9921C22.9053 10.2289 21.6881 9.25846 20.6443 8.11647L20.0468 8.56231L20.1873 8.69829C22.7174 11.3131 25.4549 12.8022 26.6586 12.2605C26.6943 12.2427 26.73 12.2249 26.7634 12.2048H26.7768C26.8233 12.1759 26.8673 12.1431 26.9083 12.1067C26.9517 12.0675 26.9912 12.0242 27.0264 11.9774C27.8133 10.9453 26.6185 8.16551 24.2377 5.44144L24.1642 5.33667Z" fill="#84EEB1"/>
</g>
<defs>
<radialGradient id="paint0_radial_2492_35330" cx="0" cy="0" r="1" gradientTransform="matrix(32.0669 -1.28268 0.962006 23.7295 23.7983 0.792998)" gradientUnits="userSpaceOnUse">
<stop stop-color="#03BA50"/>
<stop offset="0.8" stop-color="#01B64E"/>
</radialGradient>
<radialGradient id="paint1_radial_2492_35330" cx="0" cy="0" r="1" gradientTransform="matrix(32 -1.28 0.96 23.68 23.795 0.790524)" gradientUnits="userSpaceOnUse">
<stop stop-color="#04BC50"/>
<stop offset="0.8" stop-color="#01B34D"/>
</radialGradient>
<radialGradient id="paint2_radial_2492_35330" cx="0" cy="0" r="1" gradientTransform="matrix(31.9331 -1.27733 0.957994 23.6305 23.7874 0.79653)" gradientUnits="userSpaceOnUse">
<stop stop-color="#06BD51"/>
<stop offset="0.72" stop-color="#02B24C"/>
<stop offset="0.8" stop-color="#01B04B"/>
</radialGradient>
<radialGradient id="paint3_radial_2492_35330" cx="0" cy="0" r="1" gradientTransform="matrix(31.8663 -1.27465 0.955988 23.5811 23.7754 0.806713)" gradientUnits="userSpaceOnUse">
<stop stop-color="#08BF52"/>
<stop offset="0.56" stop-color="#04B44D"/>
<stop offset="0.8" stop-color="#01AD4A"/>
</radialGradient>
<radialGradient id="paint4_radial_2492_35330" cx="0" cy="0" r="1" gradientTransform="matrix(31.7994 -1.27198 0.953981 23.5315 23.7634 0.81636)" gradientUnits="userSpaceOnUse">
<stop stop-color="#0AC053"/>
<stop offset="0.48" stop-color="#05B54E"/>
<stop offset="0.8" stop-color="#01AA49"/>
</radialGradient>
<radialGradient id="paint5_radial_2492_35330" cx="0" cy="0" r="1" gradientTransform="matrix(31.7303 -0.951909 0.951908 23.4804 23.7493 0.840324)" gradientUnits="userSpaceOnUse">
<stop stop-color="#0BC253"/>
<stop offset="0.42" stop-color="#07B74E"/>
<stop offset="0.8" stop-color="#01A848"/>
</radialGradient>
<radialGradient id="paint6_radial_2492_35330" cx="0" cy="0" r="1" gradientTransform="matrix(31.6634 -0.949902 0.949902 23.4309 23.7308 0.846521)" gradientUnits="userSpaceOnUse">
<stop stop-color="#0DC354"/>
<stop offset="0.37" stop-color="#08B84F"/>
<stop offset="0.8" stop-color="#01A546"/>
</radialGradient>
<radialGradient id="paint7_radial_2492_35330" cx="0" cy="0" r="1" gradientTransform="matrix(31.5965 -0.947895 0.63193 23.3814 23.9662 0.852836)" gradientUnits="userSpaceOnUse">
<stop stop-color="#0FC555"/>
<stop offset="0.33" stop-color="#0ABA50"/>
<stop offset="0.8" stop-color="#01A245"/>
</radialGradient>
<radialGradient id="paint8_radial_2492_35330" cx="0" cy="0" r="1" gradientTransform="matrix(31.8449 -0.945889 0.630593 23.3319 23.9428 0.864138)" gradientUnits="userSpaceOnUse">
<stop stop-color="#11C656"/>
<stop offset="0.3" stop-color="#0CBB51"/>
<stop offset="0.8" stop-color="#019F44"/>
</radialGradient>
<radialGradient id="paint9_radial_2492_35330" cx="0" cy="0" r="1" gradientTransform="matrix(31.7774 -0.943883 0.629255 23.2825 23.9349 0.875444)" gradientUnits="userSpaceOnUse">
<stop stop-color="#12C856"/>
<stop offset="0.28" stop-color="#0EBD51"/>
<stop offset="0.77" stop-color="#029E44"/>
<stop offset="0.8" stop-color="#019C43"/>
</radialGradient>
<radialGradient id="paint10_radial_2492_35330" cx="0" cy="0" r="1" gradientTransform="matrix(31.7076 -0.94181 0.627873 23.2313 23.9272 0.890884)" gradientUnits="userSpaceOnUse">
<stop stop-color="#14C957"/>
<stop offset="0.26" stop-color="#0FBE52"/>
<stop offset="0.72" stop-color="#049F44"/>
<stop offset="0.8" stop-color="#019941"/>
</radialGradient>
<radialGradient id="paint11_radial_2492_35330" cx="0" cy="0" r="1" gradientTransform="matrix(31.6401 -0.939804 0.626536 23.1818 23.9127 0.909904)" gradientUnits="userSpaceOnUse">
<stop stop-color="#16CB58"/>
<stop offset="0.24" stop-color="#11C053"/>
<stop offset="0.66" stop-color="#06A145"/>
<stop offset="0.8" stop-color="#019640"/>
</radialGradient>
<radialGradient id="paint12_radial_2492_35330" cx="0" cy="0" r="1" gradientTransform="matrix(31.5725 -0.937798 0.625199 23.1323 23.896 0.930333)" gradientUnits="userSpaceOnUse">
<stop stop-color="#18CC59"/>
<stop offset="0.23" stop-color="#13C154"/>
<stop offset="0.62" stop-color="#07A246"/>
<stop offset="0.8" stop-color="#01933F"/>
</radialGradient>
<radialGradient id="paint13_radial_2492_35330" cx="0" cy="0" r="1" gradientTransform="matrix(31.5027 -0.935724 0.623816 23.0812 23.8792 0.955119)" gradientUnits="userSpaceOnUse">
<stop stop-color="#19CD59"/>
<stop offset="0.21" stop-color="#15C254"/>
<stop offset="0.59" stop-color="#09A347"/>
<stop offset="0.8" stop-color="#01903E"/>
</radialGradient>
<radialGradient id="paint14_radial_2492_35330" cx="0" cy="0" r="1" gradientTransform="matrix(31.4352 -0.933718 0.622479 23.0317 23.8581 0.981594)" gradientUnits="userSpaceOnUse">
<stop stop-color="#1BCF5A"/>
<stop offset="0.2" stop-color="#17C455"/>
<stop offset="0.56" stop-color="#0BA547"/>
<stop offset="0.8" stop-color="#018D3C"/>
</radialGradient>
<radialGradient id="paint15_radial_2492_35330" cx="0" cy="0" r="1" gradientTransform="matrix(31.3676 -0.621141 0.621141 22.9822 23.8347 0.884859)" gradientUnits="userSpaceOnUse">
<stop stop-color="#1DD05B"/>
<stop offset="0.19" stop-color="#18C556"/>
<stop offset="0.54" stop-color="#0CA648"/>
<stop offset="0.8" stop-color="#018B3B"/>
</radialGradient>
<radialGradient id="paint16_radial_2492_35330" cx="0" cy="0" r="1" gradientTransform="matrix(31.2978 -0.619759 0.619759 22.9311 23.8092 0.904781)" gradientUnits="userSpaceOnUse">
<stop stop-color="#1ED25B"/>
<stop offset="0.18" stop-color="#1AC756"/>
<stop offset="0.51" stop-color="#0EA848"/>
<stop offset="0.8" stop-color="#01883A"/>
</radialGradient>
<radialGradient id="paint17_radial_2492_35330" cx="0" cy="0" r="1" gradientTransform="matrix(31.2303 -0.618422 0.618421 22.8816 23.7837 0.924507)" gradientUnits="userSpaceOnUse">
<stop stop-color="#20D35C"/>
<stop offset="0.18" stop-color="#1BC857"/>
<stop offset="0.49" stop-color="#0FA949"/>
<stop offset="0.8" stop-color="#018539"/>
</radialGradient>
<radialGradient id="paint18_radial_2492_35330" cx="0" cy="0" r="1" gradientTransform="matrix(31.1628 -0.617084 0.617084 22.8321 23.7536 0.951938)" gradientUnits="userSpaceOnUse">
<stop stop-color="#22D55D"/>
<stop offset="0.17" stop-color="#1DCA58"/>
<stop offset="0.47" stop-color="#11AB4A"/>
<stop offset="0.8" stop-color="#018237"/>
</radialGradient>
<radialGradient id="paint19_radial_2492_35330" cx="0" cy="0" r="1" gradientTransform="matrix(31.0929 -0.615702 0.615702 22.781 23.7191 0.977197)" gradientUnits="userSpaceOnUse">
<stop stop-color="#24D65E"/>
<stop offset="0.16" stop-color="#1FCB59"/>
<stop offset="0.45" stop-color="#13AC4B"/>
<stop offset="0.8" stop-color="#017F36"/>
</radialGradient>
<radialGradient id="paint20_radial_2492_35330" cx="0" cy="0" r="1" gradientTransform="matrix(31.0254 -0.614365 0.614364 22.7315 23.6825 1.00807)" gradientUnits="userSpaceOnUse">
<stop stop-color="#25D85E"/>
<stop offset="0.15" stop-color="#20CD59"/>
<stop offset="0.43" stop-color="#14AE4B"/>
<stop offset="0.79" stop-color="#017D36"/>
<stop offset="0.8" stop-color="#007C35"/>
</radialGradient>
<radialGradient id="paint21_radial_2492_35330" cx="0" cy="0" r="1" gradientTransform="matrix(30.9579 -0.613027 0.306514 22.682 24.3572 1.04308)" gradientUnits="userSpaceOnUse">
<stop stop-color="#27D95F"/>
<stop offset="0.15" stop-color="#22CE5A"/>
<stop offset="0.42" stop-color="#16AF4C"/>
<stop offset="0.77" stop-color="#027E36"/>
<stop offset="0.8" stop-color="#007934"/>
</radialGradient>
<radialGradient id="paint22_radial_2492_35330" cx="0" cy="0" r="1" gradientTransform="matrix(31.1939 -0.611645 0.305823 22.6309 24.1266 1.07899)" gradientUnits="userSpaceOnUse">
<stop stop-color="#29DB60"/>
<stop offset="0.14" stop-color="#24D05B"/>
<stop offset="0.4" stop-color="#18B14D"/>
<stop offset="0.74" stop-color="#048037"/>
<stop offset="0.8" stop-color="#007632"/>
</radialGradient>
<radialGradient id="paint23_radial_2492_35330" cx="0" cy="0" r="1" gradientTransform="matrix(31.1257 -0.610308 0.305154 22.5814 24.0993 1.11917)" gradientUnits="userSpaceOnUse">
<stop stop-color="#2BDC61"/>
<stop offset="0.14" stop-color="#26D15C"/>
<stop offset="0.39" stop-color="#1AB24E"/>
<stop offset="0.71" stop-color="#068138"/>
<stop offset="0.8" stop-color="#007331"/>
</radialGradient>
<radialGradient id="paint24_radial_2492_35330" cx="0" cy="0" r="1" gradientTransform="matrix(31.0552 -0.608925 0.304463 22.5302 24.0721 1.16303)" gradientUnits="userSpaceOnUse">
<stop stop-color="#2CDE61"/>
<stop offset="0.13" stop-color="#27D35C"/>
<stop offset="0.37" stop-color="#1BB44E"/>
<stop offset="0.69" stop-color="#088339"/>
<stop offset="0.8" stop-color="#007030"/>
</radialGradient>
<radialGradient id="paint25_radial_2492_35330" cx="0" cy="0" r="1" gradientTransform="matrix(30.987 -0.303794 0.303794 22.4807 24.0426 0.939879)" gradientUnits="userSpaceOnUse">
<stop stop-color="#2EDF62"/>
<stop offset="0.13" stop-color="#29D45D"/>
<stop offset="0.37" stop-color="#1DB54F"/>
<stop offset="0.67" stop-color="#098439"/>
<stop offset="0.8" stop-color="#006E2F"/>
</radialGradient>
<radialGradient id="paint26_radial_2492_35330" cx="0" cy="0" r="1" gradientTransform="matrix(30.9188 -0.303125 0.303125 22.4313 24.0085 0.974767)" gradientUnits="userSpaceOnUse">
<stop stop-color="#30E163"/>
<stop offset="0.13" stop-color="#2BD65E"/>
<stop offset="0.35" stop-color="#1FB750"/>
<stop offset="0.65" stop-color="#0B8639"/>
<stop offset="0.8" stop-color="#006B2D"/>
</radialGradient>
<radialGradient id="paint27_radial_2492_35330" cx="0" cy="0" r="1" gradientTransform="matrix(30.8483 -0.302434 0.302434 22.3801 23.9743 1.01368)" gradientUnits="userSpaceOnUse">
<stop stop-color="#31E263"/>
<stop offset="0.12" stop-color="#2CD75E"/>
<stop offset="0.34" stop-color="#20B850"/>
<stop offset="0.63" stop-color="#0D873A"/>
<stop offset="0.8" stop-color="#00682C"/>
</radialGradient>
<radialGradient id="paint28_radial_2492_35330" cx="0" cy="0" r="1" gradientTransform="matrix(30.7801 -0.301765 0.301765 22.3306 23.9358 1.05416)" gradientUnits="userSpaceOnUse">
<stop stop-color="#33E364"/>
<stop offset="0.12" stop-color="#2ED85F"/>
<stop offset="0.34" stop-color="#22B951"/>
<stop offset="0.62" stop-color="#0E883B"/>
<stop offset="0.8" stop-color="#00652B"/>
</radialGradient>
<radialGradient id="paint29_radial_2492_35330" cx="0" cy="0" r="1" gradientTransform="matrix(30.7096 -0.301074 0.301074 22.2795 23.8949 1.09807)" gradientUnits="userSpaceOnUse">
<stop stop-color="#35E565"/>
<stop offset="0.12" stop-color="#30DA60"/>
<stop offset="0.33" stop-color="#24BB52"/>
<stop offset="0.6" stop-color="#108A3C"/>
<stop offset="0.8" stop-color="#00622A"/>
</radialGradient>
<radialGradient id="paint30_radial_2492_35330" cx="0" cy="0" r="1" gradientTransform="matrix(30.6414 -0.300405 0.300405 22.23 23.854 1.14346)" gradientUnits="userSpaceOnUse">
<stop stop-color="#37E666"/>
<stop offset="0.11" stop-color="#32DB61"/>
<stop offset="0.32" stop-color="#26BC53"/>
<stop offset="0.59" stop-color="#128B3C"/>
<stop offset="0.8" stop-color="#005F28"/>
</radialGradient>
<radialGradient id="paint31_radial_2492_35330" cx="0" cy="0" r="1" gradientTransform="matrix(30.5709 -0.299714 0.299715 22.1789 23.8084 1.19282)" gradientUnits="userSpaceOnUse">
<stop stop-color="#38E866"/>
<stop offset="0.11" stop-color="#33DD61"/>
<stop offset="0.31" stop-color="#27BE53"/>
<stop offset="0.57" stop-color="#148D3D"/>
<stop offset="0.8" stop-color="#005C27"/>
</radialGradient>
<radialGradient id="paint32_radial_2492_35330" cx="0" cy="0" r="1" gradientTransform="matrix(30.5027 -0.299046 0.299046 22.1294 23.7608 1.24569)" gradientUnits="userSpaceOnUse">
<stop stop-color="#3AE967"/>
<stop offset="0.11" stop-color="#35DE62"/>
<stop offset="0.3" stop-color="#29BF54"/>
<stop offset="0.56" stop-color="#158E3E"/>
<stop offset="0.8" stop-color="#005926"/>
</radialGradient>
<radialGradient id="paint33_radial_2492_35330" cx="0" cy="0" r="1" gradientTransform="matrix(30.4345 -0.298377 0.298377 22.0799 23.713 1.3001)" gradientUnits="userSpaceOnUse">
<stop stop-color="#3CEB68"/>
<stop offset="0.11" stop-color="#37E063"/>
<stop offset="0.29" stop-color="#2BC155"/>
<stop offset="0.54" stop-color="#17903F"/>
<stop offset="0.8" stop-color="#005625"/>
</radialGradient>
<radialGradient id="paint34_radial_2492_35330" cx="0" cy="0" r="1" gradientTransform="matrix(30.364 -0.297686 0.297686 22.0287 23.6584 1.35852)" gradientUnits="userSpaceOnUse">
<stop stop-color="#3EEC69"/>
<stop offset="0.1" stop-color="#39E164"/>
<stop offset="0.29" stop-color="#2DC256"/>
<stop offset="0.53" stop-color="#19913F"/>
<stop offset="0.8" stop-color="#005323"/>
</radialGradient>
<radialGradient id="paint35_radial_2492_35330" cx="0" cy="0" r="1" gradientTransform="matrix(30.2958 0 0.297017 21.9793 23.6038 1.01157)" gradientUnits="userSpaceOnUse">
<stop stop-color="#3FEE69"/>
<stop offset="0.1" stop-color="#3AE364"/>
<stop offset="0.28" stop-color="#2EC456"/>
<stop offset="0.52" stop-color="#1A9340"/>
<stop offset="0.8" stop-color="#005122"/>
</radialGradient>
<radialGradient id="paint36_radial_2492_35330" cx="0" cy="0" r="1" gradientUnits="userSpaceOnUse" gradientTransform="translate(24.3189 1.06049) scale(30.5216 21.9281)">
<stop stop-color="#41EF6A"/>
<stop offset="0.1" stop-color="#3CE465"/>
<stop offset="0.28" stop-color="#30C557"/>
<stop offset="0.51" stop-color="#1C9441"/>
<stop offset="0.79" stop-color="#015022"/>
<stop offset="0.8" stop-color="#004E21"/>
</radialGradient>
<radialGradient id="paint37_radial_2492_35330" cx="0" cy="0" r="1" gradientUnits="userSpaceOnUse" gradientTransform="translate(24.2749 1.11314) scale(30.455 21.8803)">
<stop stop-color="#43F16B"/>
<stop offset="0.1" stop-color="#3EE666"/>
<stop offset="0.27" stop-color="#32C758"/>
<stop offset="0.5" stop-color="#1E9642"/>
<stop offset="0.77" stop-color="#035223"/>
<stop offset="0.8" stop-color="#004B20"/>
</radialGradient>
<radialGradient id="paint38_radial_2492_35330" cx="0" cy="0" r="1" gradientUnits="userSpaceOnUse" gradientTransform="translate(24.2331 1.16896) scale(30.3861 21.8308)">
<stop stop-color="#45F26C"/>
<stop offset="0.1" stop-color="#40E767"/>
<stop offset="0.27" stop-color="#34C859"/>
<stop offset="0.49" stop-color="#209742"/>
<stop offset="0.76" stop-color="#055323"/>
<stop offset="0.8" stop-color="#00481E"/>
</radialGradient>
<radialGradient id="paint39_radial_2492_35330" cx="0" cy="0" r="1" gradientUnits="userSpaceOnUse" gradientTransform="translate(24.189 1.2288) scale(30.315 21.7797)">
<stop stop-color="#46F46C"/>
<stop offset="0.09" stop-color="#41E967"/>
<stop offset="0.26" stop-color="#35CA59"/>
<stop offset="0.48" stop-color="#229943"/>
<stop offset="0.74" stop-color="#065524"/>
<stop offset="0.8" stop-color="#00451D"/>
</radialGradient>
<radialGradient id="paint40_radial_2492_35330" cx="0" cy="0" r="1" gradientUnits="userSpaceOnUse" gradientTransform="translate(24.147 1.29194) scale(30.2438 21.7285)">
<stop stop-color="#48F56D"/>
<stop offset="0.09" stop-color="#43EA68"/>
<stop offset="0.25" stop-color="#37CB5A"/>
<stop offset="0.47" stop-color="#239A44"/>
<stop offset="0.73" stop-color="#085625"/>
<stop offset="0.8" stop-color="#00421C"/>
</radialGradient>
<linearGradient id="paint41_linear_2492_35330" x1="24.639" y1="16.9151" x2="22.0308" y2="-1.78785" gradientUnits="userSpaceOnUse">
<stop offset="0.1" stop-color="#FF8475"/>
<stop offset="0.37" stop-color="#E84E43"/>
<stop offset="0.6" stop-color="#D6261F"/>
<stop offset="0.79" stop-color="#CC0E08"/>
<stop offset="0.9" stop-color="#C80500"/>
</linearGradient>
<clipPath id="clip0_2492_35330">
<rect width="14" height="14" fill="white" transform="translate(15)"/>
</clipPath>
</defs>
</svg>
